<svg width="925" height="560" viewBox="0 0 925 560" fill="none" xmlns="http://www.w3.org/2000/svg">
<path d="M773.075 159.409H722.855V172.448H773.075V159.409Z" fill="#BFE8F3"/>
<path d="M830.818 158.954H780.599V171.992H830.818V158.954Z" fill="#BFE8F3"/>
<path d="M802.896 178.411H752.677V191.45H802.896V178.411Z" fill="#BFE8F3"/>
<path d="M860.629 35.2859H810.41V48.3246H860.629V35.2859Z" fill="#BFE8F3"/>
<path d="M918.373 34.821H868.153V47.8598H918.373V34.821Z" fill="#BFE8F3"/>
<path d="M890.451 54.2878H840.231V67.3266H890.451V54.2878Z" fill="#BFE8F3"/>
<path d="M866.711 240.636H816.492V253.675H866.711V240.636Z" fill="#BFE8F3"/>
<path d="M924.455 240.172H874.235V253.21H924.455V240.172Z" fill="#BFE8F3"/>
<path d="M896.523 259.638H846.304V272.677H896.523V259.638Z" fill="#BFE8F3"/>
<path d="M244.796 125.169H194.577V138.208H244.796V125.169Z" fill="#D9F1F8"/>
<path d="M302.54 124.704H252.32V137.743H302.54V124.704Z" fill="#D9F1F8"/>
<path d="M274.618 144.171H224.398V157.21H274.618V144.171Z" fill="#D9F1F8"/>
<g opacity="0.8">
<path d="M321.2 0.464844H270.98V13.5036H321.2V0.464844Z" fill="#CDEEF8"/>
<path d="M378.933 0H328.714V13.0387H378.933V0Z" fill="#CDEEF8"/>
<path d="M351.011 19.4668H300.792V32.5055H351.011V19.4668Z" fill="#CDEEF8"/>
</g>
<path d="M207.854 338.601H157.635V351.639H207.854V338.601Z" fill="#D9F1F8"/>
<path d="M265.597 338.136H215.378V351.174H265.597V338.136Z" fill="#D9F1F8"/>
<path d="M237.675 357.603H187.456V370.641H237.675V357.603Z" fill="#D9F1F8"/>
<path d="M79.0908 242.508H28.8716V255.547H79.0908V242.508Z" fill="#E8F7FB"/>
<path d="M136.833 242.043H86.6143V255.082H136.833V242.043Z" fill="#E8F7FB"/>
<path d="M108.903 261.51H58.6836V274.549H108.903V261.51Z" fill="#E8F7FB"/>
<path d="M50.2192 383.515H0V396.554H50.2192V383.515Z" fill="#E8F7FB"/>
<path d="M107.962 383.05H57.7432V396.089H107.962V383.05Z" fill="#E8F7FB"/>
<path d="M80.0404 402.517H29.8213V415.556H80.0404V402.517Z" fill="#E8F7FB"/>
<path d="M678.344 94.0249H336.406C299.837 94.0249 270.189 123.672 270.189 160.241V448.198H744.551V160.241C744.551 123.672 714.912 94.0249 678.344 94.0249Z" fill="#FCFEFF"/>
<path opacity="0.19" d="M744.55 281.544C717.45 306.087 681.502 321.034 642.067 321.034C557.717 321.034 489.336 252.654 489.336 168.304C489.336 141.35 496.321 116.021 508.575 94.0342H452.777C443.747 117.044 438.779 142.089 438.779 168.304C438.779 280.576 529.795 371.591 642.067 371.591C679.439 371.591 714.464 361.502 744.55 343.897V281.544Z" fill="#FEC55E"/>
<path d="M721.076 94.0249H293.665C280.699 94.0249 270.189 104.534 270.189 117.5V125.59H744.551V117.5C744.551 104.534 734.041 94.0249 721.076 94.0249Z" fill="#CCEDF5"/>
<path d="M310.319 113.912C312.588 113.912 314.428 112.072 314.428 109.803C314.428 107.533 312.588 105.694 310.319 105.694C308.05 105.694 306.21 107.533 306.21 109.803C306.21 112.072 308.05 113.912 310.319 113.912Z" fill="#00A5CF"/>
<path d="M326.498 113.912C328.768 113.912 330.607 112.072 330.607 109.803C330.607 107.533 328.768 105.694 326.498 105.694C324.229 105.694 322.39 107.533 322.39 109.803C322.39 112.072 324.229 113.912 326.498 113.912Z" fill="#00A5CF"/>
<path d="M342.688 113.912C344.957 113.912 346.797 112.072 346.797 109.803C346.797 107.533 344.957 105.694 342.688 105.694C340.419 105.694 338.579 107.533 338.579 109.803C338.579 112.072 340.419 113.912 342.688 113.912Z" fill="#00A5CF"/>
<path opacity="0.1" d="M270.189 194.883V263.647L346.879 354.051L270.189 419.098V448.198H304.658L409.58 359.201L270.189 194.883Z" fill="#99DBEC"/>
<path d="M745.199 448.198H743.902V117.5C743.902 104.918 733.667 94.673 721.076 94.673H293.665C281.082 94.673 270.838 104.909 270.838 117.5V448.198H269.541V117.5C269.541 104.196 280.361 93.3765 293.665 93.3765H721.076C734.379 93.3765 745.199 104.196 745.199 117.5V448.198Z" fill="#00A5CF"/>
<path d="M270.199 124.933L270.194 126.23L623.062 127.531L623.067 126.235L270.199 124.933Z" fill="#00A5CF"/>
<path d="M729.966 168.904H634.711C627.255 168.904 621.213 162.872 621.213 155.427V86.2917C621.213 80.6444 625.798 76.0881 631.433 76.0881H729.966C735.622 76.0881 740.186 80.6658 740.186 86.2917V158.679C740.207 164.326 735.622 168.904 729.966 168.904Z" fill="#FF5D53"/>
<path d="M710.341 99.8323L705.049 98.7842C704.899 98.7628 704.749 98.613 704.706 98.4419L703.656 93.1583C703.527 92.538 703.077 92.4096 702.628 92.8589L695 100.474C694.786 100.688 694.657 101.116 694.7 101.437L695.45 105.223L677.346 122.999C676.575 123.769 676.575 125.031 677.346 125.801C678.117 126.571 679.381 126.571 680.153 125.801L698.257 108.025L702.049 108.774C702.349 108.838 702.778 108.71 703.013 108.474L710.64 100.859C711.09 100.41 710.962 99.9607 710.341 99.8323Z" fill="white"/>
<path d="M684.909 112.774L688.23 109.458C688.358 109.33 688.337 109.158 688.187 109.073C685.359 107.404 682.188 106.592 679.017 106.592C674.389 106.592 669.74 108.367 666.205 111.897C659.135 118.956 659.135 130.421 666.205 137.48C669.74 141.01 674.389 142.785 679.017 142.785C683.645 142.785 688.294 141.01 691.829 137.48C697.785 131.534 698.728 122.464 694.636 115.533C694.55 115.383 694.379 115.362 694.25 115.49L690.929 118.806C690.801 118.934 690.758 119.148 690.844 119.319C691.615 120.988 692.022 122.806 692.022 124.688C692.022 128.154 690.672 131.405 688.208 133.865C685.745 136.325 682.488 137.673 679.017 137.673C675.546 137.673 672.29 136.325 669.826 133.865C664.748 128.795 664.748 120.581 669.826 115.512C672.29 113.052 675.546 111.704 679.017 111.704C680.903 111.704 682.724 112.11 684.395 112.881C684.545 112.945 684.78 112.902 684.909 112.774Z" fill="white"/>
<path d="M703.849 111.64L700.464 115.02C700.335 115.148 700.292 115.362 700.378 115.533C701.599 118.378 702.242 121.48 702.242 124.667C702.242 130.871 699.821 136.689 695.429 141.074C691.037 145.459 685.209 147.877 678.996 147.877C672.783 147.877 666.955 145.459 662.563 141.074C653.5 132.026 653.5 117.309 662.563 108.26C666.955 103.875 672.783 101.458 678.996 101.458C682.188 101.458 685.295 102.1 688.144 103.319C688.294 103.383 688.53 103.34 688.659 103.212L692.044 99.8324C692.172 99.704 692.151 99.5543 691.98 99.4687C687.909 97.3724 683.452 96.3242 678.996 96.3242C671.733 96.3242 664.491 99.0837 658.942 104.624C647.866 115.683 647.866 133.609 658.942 144.668C664.47 150.187 671.733 152.968 678.996 152.968C686.259 152.968 693.501 150.208 699.05 144.668C707.984 135.748 709.719 122.336 704.213 111.683C704.149 111.555 703.978 111.533 703.849 111.64Z" fill="white"/>
<path d="M587.657 237.451H586.114C575.568 237.451 567.021 228.904 567.021 218.358V216.815C567.021 206.269 575.568 197.723 586.114 197.723H587.657C598.203 197.723 606.749 206.269 606.749 216.815V218.358C606.749 228.904 598.203 237.451 587.657 237.451Z" fill="#FEC55E"/>
<path d="M592.515 226.494L587.155 223.764C587.055 223.709 586.927 223.709 586.826 223.764L581.54 226.631C581.284 226.768 580.974 226.558 581.019 226.265L581.96 220.33C581.978 220.212 581.942 220.093 581.85 220.02L577.495 215.884C577.276 215.683 577.394 215.318 577.687 215.272L583.622 214.331C583.74 214.313 583.841 214.24 583.886 214.131L586.479 208.707C586.607 208.442 586.982 208.433 587.119 208.698L589.849 214.057C589.904 214.158 590.004 214.231 590.123 214.249L596.085 215.034C596.377 215.071 596.496 215.436 596.295 215.637L592.04 219.892C591.958 219.974 591.921 220.093 591.94 220.212L593.035 226.128C593.081 226.393 592.78 226.621 592.515 226.494Z" fill="white"/>
<path d="M649.226 346.862H434.433C411.533 346.862 392.971 328.299 392.971 305.399V302.039C392.971 279.139 411.533 260.576 434.433 260.576H649.226C672.126 260.576 690.688 279.139 690.688 302.039V305.399C690.688 328.299 672.116 346.862 649.226 346.862Z" fill="white" stroke="#EAEAEA" stroke-miterlimit="10"/>
<path d="M441.022 331.344H438.903C424.522 331.344 412.753 319.574 412.753 305.193V303.075C412.753 288.694 424.522 276.924 438.903 276.924H441.022C455.403 276.924 467.172 288.694 467.172 303.075V305.193C467.163 319.574 455.403 331.344 441.022 331.344Z" fill="#00A5CF"/>
<path d="M491.632 306.814L493.449 312.402H499.321L494.563 315.853L496.38 321.441L491.632 317.99L486.875 321.441L488.692 315.853L483.944 312.402H489.815L491.632 306.814Z" fill="#FEC55E"/>
<path d="M513.683 306.814L515.5 312.402H521.371L516.623 315.853L518.431 321.441L513.683 317.99L508.935 321.441L510.743 315.853L505.995 312.402H511.866L513.683 306.814Z" fill="#FEC55E"/>
<path d="M535.734 306.814L537.551 312.402H543.422L538.674 315.853L540.491 321.441L535.734 317.99L530.986 321.441L532.803 315.853L528.046 312.402H533.917L535.734 306.814Z" fill="#FEC55E"/>
<path d="M557.785 306.814L559.602 312.402H565.473L560.725 315.853L562.542 321.441L557.785 317.99L553.037 321.441L554.854 315.853L550.097 312.402H555.977L557.785 306.814Z" fill="#FEC55E"/>
<path d="M579.844 306.814L581.652 312.402H587.523L582.775 315.853L584.592 321.441L579.844 317.99L575.087 321.441L576.904 315.853L572.156 312.402H578.027L579.844 306.814Z" fill="#FEC55E"/>
<path d="M644.268 327.395C657.344 327.395 667.944 316.795 667.944 303.719C667.944 290.643 657.344 280.043 644.268 280.043C631.192 280.043 620.592 290.643 620.592 303.719C620.592 316.795 631.192 327.395 644.268 327.395Z" fill="#7AE582"/>
<path d="M641.008 310.503C640.843 310.503 640.679 310.439 640.551 310.311C640.295 310.056 640.295 309.645 640.551 309.398L646.358 303.591L640.816 298.049C640.56 297.793 640.56 297.382 640.816 297.136C641.071 296.88 641.482 296.88 641.729 297.136L648.194 303.6L641.473 310.32C641.345 310.439 641.181 310.503 641.008 310.503Z" fill="white"/>
<path d="M441.375 303.563C441.689 303.402 442.039 303.317 442.403 303.317C443.006 303.317 443.572 303.55 443.999 303.975L444.918 303.056C447.193 303.854 449.824 303.343 451.642 301.525C453.172 299.995 453.776 297.89 453.453 295.905C453.418 295.687 453.263 295.506 453.053 295.438C452.842 295.37 452.611 295.426 452.454 295.582L451.09 296.947C449.978 298.059 448.176 298.059 447.065 296.947C445.953 295.836 445.953 294.034 447.065 292.922L448.429 291.557C448.586 291.401 448.642 291.17 448.574 290.959C448.505 290.748 448.325 290.594 448.106 290.558C446.122 290.236 444.017 290.839 442.487 292.37C440.641 294.215 440.145 296.897 440.994 299.194L439 301.188L441.375 303.563Z" fill="white"/>
<path d="M437.742 307.175L435.377 304.81L427.109 313.078C426.034 314.154 426.034 315.897 427.109 316.972C428.184 318.047 429.927 318.047 431.002 316.972L438.13 309.844C437.411 309.121 437.282 308.03 437.742 307.175Z" fill="white"/>
<path d="M443.016 304.967C442.847 304.798 442.625 304.714 442.403 304.714C442.182 304.714 441.96 304.798 441.791 304.967L441.297 305.461L432.505 296.669L432.916 296.258C433.29 295.883 433.244 295.262 432.817 294.948L429.23 292.306C428.885 292.052 428.407 292.088 428.104 292.391L426.581 293.914C426.278 294.217 426.242 294.696 426.496 295.04L429.138 298.628C429.452 299.054 430.073 299.101 430.447 298.726L430.858 298.315L439.651 307.108L439.122 307.636C438.784 307.974 438.784 308.522 439.122 308.861L447.234 316.972C448.309 318.047 450.052 318.047 451.127 316.972C452.202 315.897 452.202 314.154 451.127 313.079L443.016 304.967Z" fill="white"/>
<path d="M139.573 493.806L141.189 489.661L140.377 476.713L154.392 477.261V489.433L155.169 493.797L152.11 504.489L140.879 502.535L139.573 493.806Z" fill="#FFCEBD"/>
<g opacity="0.5">
<path opacity="0.5" d="M140.377 476.713L141.181 489.661L139.564 493.806L140.87 502.535L143.573 503.001C143.765 502.407 143.81 501.759 143.774 501.138C143.646 498.828 142.687 496.29 143.965 494.363C144.258 493.925 144.65 493.56 144.888 493.085C145.7 491.496 144.486 489.697 143.692 488.109C141.966 484.657 142.203 480.676 142.815 476.805L140.377 476.713Z" fill="#BC9B8D"/>
</g>
<path d="M138.469 502.919V506.608C138.469 506.881 138.551 507.146 138.697 507.365C139.172 508.078 140.359 509.657 141.975 510.442C142.687 510.789 143.29 511.319 143.737 511.976C144.824 513.574 147.727 516.46 155.041 517.848C161.515 519.08 165.824 518.076 168.171 517.135C169.458 516.615 170.317 515.373 170.317 513.985V511.264L138.469 502.919Z" fill="white"/>
<path d="M210.118 255.968C210.118 255.968 212.757 251.905 207.744 243.313C204.43 237.634 198.659 251.22 198.659 251.22C198.659 251.22 199.673 257.74 210.118 255.968Z" fill="#25A18E"/>
<path d="M196.065 478.795C196.065 478.795 192.924 487.296 202.731 494.655V507.438H178.635C178.635 507.438 183.483 489.158 180.908 478.795H196.065Z" fill="#FFCEBD"/>
<path d="M200.704 492.199C200.704 492.199 207.89 501.832 214.893 503.759C214.893 503.759 222.937 506.123 228.224 506.881C230.096 507.146 231.493 508.735 231.493 510.625V511.994H177.585L179.329 493.742L181.283 493.897C181.283 493.888 198.951 512.341 200.704 492.199Z" fill="url(#paint0_linear_148_3516)"/>
<path d="M229.01 515.063H179.676C177.823 515.063 177.083 509.922 177.996 509.958L228.398 511.775C229.366 511.821 230.242 511.812 230.854 511.036L231.493 510.579V512.506C231.493 513.912 230.379 515.063 229.01 515.063Z" fill="white"/>
<path d="M184.807 156.023C184.049 157.502 183.346 159.045 182.223 160.269C181.1 161.501 179.447 162.387 177.813 162.113C177.028 161.985 176.315 161.611 175.621 161.237C174.416 160.579 173.202 159.876 172.252 158.89C166.107 152.453 173.32 140.391 179.356 136.447C183.51 133.735 192.386 131.68 191.883 139.332C191.491 145.495 187.519 150.718 184.807 156.023Z" fill="#121010"/>
<path d="M148.586 122.586C146.815 120.34 144.331 118.641 141.528 118.139C138.259 117.555 134.625 118.797 132.744 121.536C131.448 123.426 131.073 125.846 131.393 128.11C131.722 130.374 132.708 132.502 133.949 134.428C135.739 137.204 137.702 137.999 140.551 139.195C142.039 139.825 143.537 140.263 145.171 140.272C146.084 140.281 148.687 140.199 149.298 139.359L151.8 135.862C152.065 135.488 152.01 133.579 152.056 133.004C152.147 131.981 151.964 130.941 151.764 129.936C151.344 127.763 150.595 125.636 149.399 123.755C149.152 123.353 148.878 122.96 148.586 122.586Z" fill="#231F20"/>
<path d="M152.055 132.995C152.147 131.972 151.964 130.931 151.763 129.927C151.343 127.754 150.594 125.626 149.398 123.745C149.143 123.344 148.869 122.96 148.577 122.586C146.805 120.34 144.322 118.641 141.518 118.139C140.761 118.002 139.975 117.966 139.199 118.03C140.843 119.262 142.085 121.015 142.742 122.96C143.125 124.083 143.144 125.152 143.272 126.311C143.399 127.443 143.975 128.493 144.203 129.635C144.851 132.885 143.5 136.282 141.336 138.793C141.181 138.975 141.016 139.149 140.861 139.322C142.249 139.879 143.646 140.263 145.171 140.272C146.084 140.281 148.686 140.199 149.289 139.359L151.791 135.862C152.055 135.478 152.001 133.57 152.055 132.995Z" fill="#090808"/>
<path d="M147.764 179.325C146.86 181.735 145.71 184.091 145.345 186.638C144.97 189.186 145.536 192.053 147.527 193.687C148.595 194.564 149.946 194.993 151.27 195.386C153.927 196.171 156.648 196.865 159.415 196.792C163.478 196.691 167.532 197.312 171.595 197.184C174.746 197.084 177.01 195.897 180.233 196.929C182.342 197.604 184.589 198.472 186.698 197.787C188.469 197.221 189.766 195.614 190.35 193.842C190.934 192.08 190.889 190.163 190.67 188.318C190.012 182.986 187.985 177.891 188.533 172.458C188.999 167.884 186.625 164.204 186.196 159.629C185.976 157.328 186.415 155.037 187.036 152.827C187.437 151.384 188.579 149.723 187.857 148.298C186.351 145.303 180.306 143.778 177.366 143.221C173.495 142.491 169.532 142.518 165.597 142.564C163.862 142.582 162.109 142.61 160.456 143.112C157.872 143.906 154.183 146.919 152.695 149.147C150.166 152.918 150.942 157.347 150.841 161.638C150.686 167.655 149.883 173.691 147.764 179.325Z" fill="#090808"/>
<path d="M190.651 418.788C197.575 418.788 203.187 413.175 203.187 406.251C203.187 399.328 197.575 393.715 190.651 393.715C183.727 393.715 178.114 399.328 178.114 406.251C178.114 413.175 183.727 418.788 190.651 418.788Z" fill="url(#paint1_linear_148_3516)"/>
<path d="M176.206 337.944C190.624 337.944 202.311 326.257 202.311 311.839C202.311 297.422 190.624 285.734 176.206 285.734C161.789 285.734 150.102 297.422 150.102 311.839C150.102 326.257 161.789 337.944 176.206 337.944Z" fill="url(#paint2_linear_148_3516)"/>
<path d="M202.293 309.136C202.247 310.616 202.996 404.115 202.996 404.115H178.114L160.912 315.345L200.375 296.207L202.293 309.136Z" fill="url(#paint3_linear_148_3516)"/>
<path d="M178.114 404.115L176.489 421.618C176.297 423.673 176.261 425.736 176.389 427.8L179.639 482.283C179.639 482.283 187.126 487.899 195.791 482.283L202.996 408.406L178.114 404.115Z" fill="url(#paint4_linear_148_3516)"/>
<path d="M203.179 406.251C203.179 405.521 203.115 404.809 202.996 404.115C202.996 404.115 202.393 328.64 202.302 312.241C202.302 312.104 202.311 311.976 202.311 311.839C202.311 311.629 202.302 311.428 202.293 311.227C202.284 309.995 202.284 309.264 202.293 309.137L200.375 296.207L197.947 297.385C193.272 290.364 185.282 285.734 176.206 285.734C161.789 285.734 150.102 297.422 150.102 311.839C150.102 322.166 156.091 331.087 164.784 335.324L178.115 404.115H178.297C178.297 404.124 178.297 404.133 178.288 404.142L178.106 404.115L176.48 421.618C176.289 423.673 176.252 425.736 176.38 427.8L179.63 482.283C179.63 482.283 187.118 487.899 195.783 482.283L202.987 408.406C203.115 407.703 203.179 406.991 203.179 406.251Z" fill="#4D5068"/>
<path d="M186.469 395.413C184.351 391.752 184.652 387.241 184.789 383.004C185.419 364.177 181.584 345.221 173.686 328.119L171.33 322.632C169.796 316.56 168.08 310.543 166.162 304.58C164.683 299.96 162.875 295.112 159.579 291.697C153.781 296.481 150.083 303.731 150.083 311.839C150.083 322.166 156.073 331.087 164.774 335.324L178.105 404.115H178.288C178.288 404.124 178.288 404.133 178.279 404.142L178.096 404.115L176.471 421.618C176.279 423.673 176.243 425.736 176.37 427.8L178.681 466.45C180.023 448.664 181.365 430.886 182.716 413.099C182.844 411.419 183.145 409.465 184.625 408.671C185.09 408.424 185.62 408.324 186.067 408.05C187.373 407.256 187.419 405.247 186.569 403.978C185.72 402.709 184.269 401.996 182.89 401.339C185.145 401.485 187.391 401.631 189.647 401.777C189.665 399.358 187.674 397.495 186.469 395.413Z" fill="#3A3C4E"/>
<path d="M158.529 337.341C172.78 337.341 184.333 325.789 184.333 311.538C184.333 297.287 172.78 285.734 158.529 285.734C144.278 285.734 132.726 297.287 132.726 311.538C132.726 325.789 144.278 337.341 158.529 337.341Z" fill="url(#paint5_linear_148_3516)"/>
<path d="M153.215 419.217C161.026 419.217 167.358 412.884 167.358 405.073C167.358 397.262 161.026 390.93 153.215 390.93C145.404 390.93 139.071 397.262 139.071 405.073C139.071 412.884 145.404 419.217 153.215 419.217Z" fill="url(#paint6_linear_148_3516)"/>
<path d="M133.347 317.208L139.072 405.073L167.304 406.251L184.233 313.775L133.347 317.208Z" fill="url(#paint7_linear_148_3516)"/>
<path d="M139.071 405.073L136.159 422.915C135.118 429.306 134.871 435.807 135.437 442.263L139.071 483.689C139.071 483.689 144.997 489.77 155.297 483.689L167.294 406.26L139.071 405.073Z" fill="url(#paint8_linear_148_3516)"/>
<path d="M188.542 301.485C188.542 287.232 172.782 285.734 158.529 285.734C144.276 285.734 132.726 297.285 132.726 311.538C132.726 313.492 132.945 315.382 133.356 317.208H133.346L139.081 405.073L136.168 422.915C135.127 429.306 134.88 435.808 135.447 442.263L139.081 483.689C139.081 483.689 145.006 489.77 155.306 483.689L167.003 408.251C167.149 407.603 167.258 406.936 167.313 406.251C167.304 406.251 188.542 302.234 188.542 301.485Z" fill="#4D5068"/>
<g opacity="0.1">
<path opacity="0.1" d="M160.145 285.734C159.607 285.725 159.068 285.725 158.529 285.725C144.276 285.725 132.726 297.275 132.726 311.529C132.726 313.483 132.945 315.373 133.356 317.199H133.346L139.071 405.064L136.159 422.906C135.118 429.297 134.871 435.798 135.437 442.254L139.071 483.68C139.071 483.68 140.14 484.776 142.158 485.57C143.436 476.996 143.326 468.213 141.829 459.675C140.742 453.485 138.935 447.011 140.952 441.049C141.82 442.592 142.751 444.208 144.239 445.166C145.728 446.125 147.965 446.198 149.097 444.829C149.663 444.144 149.864 443.231 149.974 442.354C151.343 431.498 142.094 421.591 142.806 410.67C144.176 411.191 145.545 411.711 146.915 412.232C149.17 408.643 140.487 404.489 143.208 401.247C145.189 402.827 147.6 403.859 150.101 404.206C151.133 402.024 148.686 399.951 147.326 397.96C144.413 393.696 146.422 387.999 147.791 383.023C150.038 374.85 150.238 366.121 148.376 357.858C145.938 347.038 140.048 335.771 144.239 325.499C144.723 324.312 145.454 323.07 146.668 322.677C148.759 321.992 151.352 324.047 153.078 322.686C152.841 319.408 150.576 316.669 149.408 313.601C146.285 305.42 151.27 296.454 156.822 289.688C157.917 288.382 159.031 287.067 160.145 285.734Z" fill="white"/>
</g>
<path d="M126.517 197.668L149.453 185.031H179.521L190.542 190.208C194.468 192.053 196.97 195.997 196.97 200.325V216.276C196.97 216.276 201.179 231.141 200.248 235.351C199.307 239.56 196.267 250.617 196.267 250.617L200.384 296.207C200.384 296.207 194.769 308.771 175.056 305.831C168.518 304.863 162.483 301.841 157.579 297.412C152.968 293.249 144.879 289.149 135.775 298.773L144.322 274.832L126.517 197.668Z" fill="url(#paint9_linear_148_3516)"/>
<g opacity="0.3">
<path opacity="0.3" d="M183.109 244.81C183.2 241.925 181.675 238.775 178.909 237.953C174.115 236.52 169.44 242.519 164.619 241.158C161.798 240.364 160.255 237.351 159.46 234.538C158.657 231.726 158.191 228.649 156.246 226.458C155.114 225.179 153.571 224.33 152.293 223.189C147.499 218.906 148.649 211.154 144.677 206.005C141.71 202.151 136.341 199.741 131.849 201.594C130.972 201.951 130.141 202.48 129.575 203.229C128.89 204.124 128.616 205.274 128.48 206.388C127.676 212.77 131.767 220.404 133.227 226.731C134.917 234.063 136.606 241.395 138.295 248.727C140.304 257.438 142.313 266.14 144.312 274.851L135.766 298.791C144.869 289.158 152.959 293.267 157.57 297.431C160.255 299.851 163.286 301.85 166.537 303.32C166.884 301.896 167.139 300.453 167.331 299.02C168.052 293.459 167.851 287.807 168.701 282.265C170.298 271.819 175.476 262.314 180.342 252.937C181.666 250.371 183.008 247.696 183.109 244.81Z" fill="#134611"/>
</g>
<path d="M177.074 169.938L179.521 185.031L175.302 203.658C175.312 204.087 174.8 204.306 174.49 204.014L154.722 185.031L159.835 162.168L177.074 169.938Z" fill="#FFCEBD"/>
<path d="M161.971 164.679C161.597 171.262 169.358 175.809 175.385 178.329C175.549 178.393 178.507 179.763 178.681 179.817L177.083 169.938L161.561 162.944C161.798 164.04 161.971 164.679 161.971 164.679Z" fill="#BC9B8D"/>
<path d="M187.629 135.826L190.551 148.161C190.614 148.554 190.605 148.947 190.514 149.339L189.683 152.854L190.304 156.927C190.532 158.406 190.404 159.913 189.93 161.337L187.126 169.81C185.83 173.727 181.895 176.138 177.813 175.508C171.358 174.513 162.729 171.974 161.506 165.501C161.506 165.501 148.631 142.327 158.346 136.474C168.061 130.621 174.69 120.732 187.629 135.826Z" fill="#FFCEBD"/>
<path d="M187.629 135.825C185.657 133.525 183.84 131.808 182.132 130.566C181.776 133.725 181.466 136.885 181.201 140.053C181.1 141.295 181 142.564 181.31 143.769C181.867 145.952 183.703 147.75 183.803 150.006C183.867 151.366 183.274 152.663 183.082 154.005C182.561 157.675 185.036 161.3 184.415 164.953C183.913 167.874 181.502 170.267 181.283 173.216C181.228 173.91 181.301 174.586 181.466 175.261C184.077 174.503 186.25 172.513 187.154 169.792L189.957 161.319C190.432 159.894 190.551 158.388 190.332 156.908L189.711 152.836L190.542 149.321C190.633 148.937 190.642 148.536 190.578 148.143L187.629 135.825Z" fill="#FFD8CA"/>
<path d="M159.396 136.465C151.964 140.939 157.752 155.539 160.875 162.168L154.712 185.031L156.082 186.346C157.077 185.561 158.419 184.255 159.04 183.707C161.368 181.662 162.5 181.927 164.902 179.863C167.011 178.055 168.664 175.626 169.166 172.896C169.413 171.545 169.376 170.157 169.367 168.778C169.266 155 172.937 142.628 182.323 132.228C182.734 131.771 183.154 131.324 183.583 130.877C173.823 123.426 167.751 131.434 159.396 136.465Z" fill="#BC9B8D"/>
<path d="M180.872 138.281C169.888 146.974 164.218 158.561 162.026 172.166C161.807 173.526 161.615 174.905 161.141 176.192C160.191 178.804 158.155 180.922 155.781 182.355C153.069 183.99 152.001 183.552 149.362 185.177C146.714 186.811 139.802 190.299 138.715 190.929C138.131 191.276 137.519 191.587 136.926 191.925C136.314 191.002 136.058 188.08 136.04 186.848C136.004 184.273 136.926 181.488 137.528 179.014C138.925 173.325 139.683 167.81 140.231 162.03C140.825 155.703 139.994 149.512 141.519 143.221C143.5 135.049 149.873 127.361 156.886 122.878C160.976 120.266 165.633 118.422 170.481 118.075C174.353 117.792 178.334 118.513 181.776 120.339C186.259 122.722 191.327 125.389 193.153 130.438C194.532 134.273 194.24 138.574 192.642 142.253C191.993 143.76 191.026 145.65 190.304 147.129C189.501 145.522 190.03 143.221 190.131 141.431C190.231 139.642 190.049 137.615 188.688 136.446C187.09 135.067 184.543 135.533 182.844 136.775C182.178 137.268 181.52 137.77 180.872 138.281Z" fill="#231F20"/>
<path d="M244.861 218.422H214.008C212.994 218.422 212.008 218.751 211.205 219.363L178.124 244.436H214.565L245.683 220.851C246.714 220.075 246.157 218.422 244.861 218.422Z" fill="#4D5068"/>
<path d="M212.127 220.897C212.93 220.285 213.916 219.956 214.93 219.956H245.783C245.929 219.956 246.075 219.984 246.203 220.02C246.331 219.263 245.792 218.432 244.87 218.432H214.017C213.003 218.432 212.017 218.76 211.214 219.372L178.133 244.445H181.064L212.127 220.897Z" fill="#717386"/>
<path d="M207.963 253.612C210.807 253.612 213.113 251.307 213.113 248.463C213.113 245.618 210.807 243.313 207.963 243.313C205.119 243.313 202.813 245.618 202.813 248.463C202.813 251.307 205.119 253.612 207.963 253.612Z" fill="#FFCEBD"/>
<path d="M204.548 244.436H197.938L196.267 250.618L197.609 265.501L211.095 252.553L204.548 244.436Z" fill="#FFCEBD"/>
<path d="M204.548 244.61V237.67L203.27 234.219C203.014 233.516 203.324 232.731 204 232.402C204.658 232.082 205.461 232.301 205.863 232.913L207.972 236.155L208.629 230.612C208.721 229.809 209.323 229.151 210.109 228.978C211.177 228.74 212.218 229.443 212.4 230.521L213.113 234.657L215.541 226.421C215.77 225.654 216.473 225.125 217.276 225.125C218.272 225.125 219.084 225.937 219.084 226.932V230.557L224.179 224.029C224.627 223.454 225.394 223.225 226.087 223.472C227.083 223.819 227.521 224.969 227.028 225.892L222.828 233.662L230.982 227.398C232.041 226.586 233.41 226.284 234.716 226.585L235.812 226.841L224.106 237.679L215.797 244.619L212.127 251.485L204.548 244.61Z" fill="#FFCEBD"/>
<path d="M229.184 228.896L220.601 236.574L222.828 233.662L229.184 228.896Z" fill="#BC9B8D"/>
<path d="M222.491 226.193L218.227 231.735L220.838 228.968L222.491 226.193Z" fill="#BC9B8D"/>
<path d="M215.112 227.873L213.113 234.648L211.752 237.67L213.624 234.648L215.112 227.873Z" fill="#BC9B8D"/>
<path d="M208.374 232.73L207.808 237.67L206.877 239.332L208.63 237.076L208.374 232.73Z" fill="#BC9B8D"/>
<path d="M197.938 244.436H201.298C201.298 244.436 197.81 251.476 210.127 255.968L197.737 266.87L196.267 250.618L197.938 244.436Z" fill="url(#paint10_linear_148_3516)"/>
<path d="M174.553 121.015C176.526 122.33 178.461 123.7 180.187 125.352C181.036 126.165 181.84 127.023 182.579 127.927C183.328 128.831 183.995 129.781 184.707 130.703C184.752 130.758 184.826 130.685 184.798 130.63C184.259 129.58 183.538 128.612 182.798 127.708C182.05 126.786 181.237 125.9 180.379 125.069C178.671 123.426 176.772 121.919 174.645 120.86C174.544 120.796 174.453 120.942 174.553 121.015Z" fill="#4F4C4D"/>
<path d="M180.735 135.487C177.347 136.474 174.288 138.583 171.741 140.975C169.038 143.513 166.81 146.526 165.021 149.768C163.021 153.384 161.542 157.255 160.309 161.181C159.688 163.163 159.15 165.162 158.574 167.162C157.999 169.153 157.333 171.143 156.255 172.933C154.027 176.64 150.402 179.041 147.051 181.634C146.933 181.726 147.088 181.917 147.207 181.844C150.338 179.89 153.452 177.598 155.698 174.64C158.154 171.399 158.985 167.409 160.099 163.583C162.309 156.004 165.267 148.334 170.81 142.536C172.207 141.075 173.741 139.751 175.412 138.619C177.101 137.478 178.918 136.574 180.799 135.789C180.99 135.707 180.926 135.433 180.735 135.487Z" fill="#4F4C4D"/>
<path d="M160.474 152.197C157.927 155.557 156.301 159.538 154.512 163.327C152.859 166.843 151.051 170.349 148.467 173.289C147.052 174.896 145.418 176.266 143.61 177.407C143.509 177.471 143.601 177.626 143.71 177.571C147.034 175.809 149.517 172.714 151.48 169.582C153.663 166.103 155.251 162.295 157.059 158.625C158.128 156.452 159.315 154.333 160.648 152.306C160.721 152.188 160.556 152.096 160.474 152.197Z" fill="#4F4C4D"/>
<path d="M174.737 129.315C173.203 130.804 171.723 132.347 170.116 133.762C168.528 135.159 166.802 136.547 164.912 137.533C163.807 138.108 162.647 138.574 161.451 138.912C161.433 138.921 161.442 138.948 161.46 138.948C165.661 137.77 169.176 135.122 172.271 132.146C173.166 131.278 174.024 130.365 174.846 129.425C174.892 129.352 174.801 129.251 174.737 129.315Z" fill="#4F4C4D"/>
<path d="M186.506 128.119C187.866 128.484 188.907 129.626 189.528 130.84C189.902 131.561 190.158 132.347 190.404 133.114C190.633 133.835 190.806 134.702 191.235 135.332C191.299 135.424 191.436 135.369 191.409 135.259C191.317 134.821 191.107 134.392 190.97 133.972C190.824 133.543 190.696 133.105 190.55 132.666C190.304 131.89 190.021 131.114 189.619 130.411C188.934 129.215 187.93 128.21 186.506 128.019C186.46 128.01 186.451 128.101 186.506 128.119Z" fill="#4F4C4D"/>
<path d="M189.008 125.791C189.757 126.485 190.524 127.161 191.19 127.937C191.866 128.731 192.432 129.608 192.888 130.539C193.811 132.383 194.322 134.483 194.258 136.547C194.185 139.003 193.171 141.195 192.414 143.486C191.619 145.897 191.154 148.417 191.053 150.955C190.934 153.813 191.208 156.699 192.067 159.429C192.149 159.703 192.551 159.593 192.496 159.31C191.966 156.744 191.665 154.133 191.756 151.512C191.848 148.901 192.295 146.299 193.089 143.815C193.5 142.546 194.021 141.304 194.377 140.017C194.669 138.957 194.833 137.871 194.852 136.766C194.879 134.693 194.459 132.648 193.61 130.758C192.697 128.74 191.199 126.604 189.19 125.544C189.044 125.471 188.88 125.672 189.008 125.791Z" fill="#231F20"/>
<path d="M144.751 138.236C142.504 140.382 141.61 143.724 141.089 146.691C140.532 149.86 140.395 153.092 139.92 156.269C139.354 160.049 138.094 163.665 137.026 167.327C135.958 170.988 135.227 174.695 135.136 178.512C135.081 180.667 135.218 182.812 135.519 184.949C135.665 185.999 135.866 187.049 136.095 188.09C136.332 189.14 136.56 190.208 137.053 191.176C137.282 191.624 137.857 191.277 137.793 190.866C137.656 189.925 137.355 189.021 137.135 188.099C136.916 187.177 136.734 186.246 136.588 185.314C136.305 183.488 136.158 181.644 136.14 179.799C136.104 176.028 136.679 172.33 137.683 168.705C138.688 165.081 139.975 161.52 140.678 157.812C141.272 154.644 141.381 151.43 141.756 148.234C141.957 146.518 142.249 144.801 142.769 143.148C143.299 141.477 144.13 139.962 145.07 138.483C145.198 138.282 144.915 138.072 144.751 138.236Z" fill="#231F20"/>
<path d="M182.963 135.488C182.626 135.734 182.233 135.917 181.922 136.182C181.557 136.492 181.201 136.803 180.845 137.122C180.188 137.697 179.539 138.273 178.9 138.857C177.585 140.053 176.307 141.277 175.093 142.582C172.664 145.185 170.545 148.125 169.103 151.393C166.181 157.986 165.77 165.391 162.711 171.929C161.953 173.545 161.059 175.115 159.945 176.512C159.397 177.206 158.794 177.854 158.137 178.448C157.47 179.06 156.74 179.58 156.028 180.128C155.535 180.502 155.945 181.251 156.521 180.977C157.954 180.283 159.178 179.105 160.219 177.918C161.269 176.713 162.173 175.371 162.93 173.965C164.537 170.988 165.542 167.747 166.364 164.478C167.277 160.844 168.016 157.155 169.322 153.631C170.573 150.252 172.454 147.202 174.791 144.463C176.097 142.929 177.485 141.477 178.928 140.09C179.649 139.396 180.379 138.72 181.11 138.044C181.475 137.706 181.849 137.378 182.215 137.04C182.607 136.684 182.899 136.273 183.265 135.899C183.438 135.679 183.192 135.314 182.963 135.488Z" fill="#231F20"/>
<path d="M158.794 241.925C158.794 241.925 171.76 244.062 167.121 259.2C167.121 259.2 150.111 260.543 158.794 241.925Z" fill="#25A18E"/>
<path d="M199.819 226.266L166.701 233.634C166.117 233.762 165.533 233.397 165.396 232.803C165.268 232.219 165.633 231.635 166.226 231.498L199.344 224.129L201.663 224.604C201.791 224.631 201.827 224.796 201.718 224.869L199.819 226.266Z" fill="white"/>
<path d="M146.185 207.429C147.118 201.685 143.217 196.273 137.472 195.34C131.728 194.408 126.316 198.309 125.383 204.053C124.451 209.798 128.352 215.21 134.096 216.142C139.841 217.075 145.253 213.174 146.185 207.429Z" fill="#FFCEBD"/>
<path d="M138.296 274.832C143.681 274.832 148.047 270.466 148.047 265.081C148.047 259.695 143.681 255.329 138.296 255.329C132.91 255.329 128.544 259.695 128.544 265.081C128.544 270.466 132.91 274.832 138.296 274.832Z" fill="#FFCEBD"/>
<path d="M171.44 250.617C174.365 250.617 176.736 248.246 176.736 245.321C176.736 242.397 174.365 240.026 171.44 240.026C168.516 240.026 166.145 242.397 166.145 245.321C166.145 248.246 168.516 250.617 171.44 250.617Z" fill="#FFCEBD"/>
<path d="M125.229 205.749L128.544 265.546L144.824 257.84L146.294 203.758L125.229 205.749Z" fill="#FFCEBD"/>
<path d="M139.071 255.329L168.628 240.838L173.933 249.997L143.984 272.997L139.071 255.329Z" fill="#FFCEBD"/>
<path d="M168.628 240.838L173.166 235.898L174.134 231.972L177.814 231.15L185.41 227.078L188.697 225.435C189.053 225.261 189.483 225.362 189.72 225.681L190.186 226.32C190.441 226.667 190.387 227.142 190.058 227.425L187.903 229.269L190.633 231.068V232.995L191.784 234.291C192.003 234.538 192.158 234.83 192.231 235.15L192.98 238.373C193.217 239.395 192.852 240.464 192.048 241.13L186.972 245.33L177.375 247.759L173.924 249.996L168.628 240.838Z" fill="#FFCEBD"/>
<path d="M179.521 228.539L183.419 225.398C183.739 225.142 184.15 225.051 184.542 225.161L187.601 225.991L184.689 227.388L179.521 228.539Z" fill="#FFCEBD"/>
<path d="M187.912 229.27C187.912 229.27 185.958 231.607 185.337 232.082C184.716 232.557 179.95 235.36 179.95 235.36L185.876 233.661L188.697 229.79L187.912 229.27Z" fill="#BC9B8D"/>
<path d="M190.642 232.986L187.602 236.446L183 239.332L188.387 237.67L191.245 233.662L190.642 232.986Z" fill="#BC9B8D"/>
<path d="M192.057 234.648L190.487 238.473L188.706 241.359L191.244 239.332L192.587 236.638L192.057 234.648Z" fill="#BC9B8D"/>
<path d="M127.347 197.211C124.782 198.608 123.266 201.357 123.448 204.269L127.484 268.842C127.95 276.284 136.35 280.365 142.486 276.147L167.121 259.209C167.121 259.209 155.105 255.402 158.794 241.934L148.047 249.111L147.024 197.22L135.757 192.582L127.347 197.211Z" fill="url(#paint11_linear_148_3516)"/>
<path d="M139.573 493.806H140.368C140.368 493.806 138.953 504.389 146.075 495.258C146.075 495.258 147.755 490.172 151.726 490.848C153.315 491.122 154.621 492.272 155.169 493.797C156.082 496.317 158.209 501.202 161.661 503.594C166.418 506.9 170.919 510.077 170.253 511.794C169.595 513.51 163.505 516.816 151.873 513.912C151.873 513.912 142.778 510.461 138.806 503.704C138.523 503.22 138.414 502.654 138.487 502.106L139.573 493.806Z" fill="url(#paint12_linear_148_3516)"/>
<g opacity="0.15">
<path opacity="0.15" d="M166.82 259.091C166.199 258.853 164.72 258.214 163.149 257.009C162.081 256.982 160.958 257.219 160.027 257.676C157.598 258.881 155.653 261.027 153.051 261.766C149.864 262.679 146.54 261.31 143.317 260.534C140.094 259.748 136.049 259.876 134.269 262.67C133.73 259.657 135.045 256.388 137.519 254.58C137.748 253.841 136.487 253.485 135.894 253.987C135.3 254.489 135.109 255.329 134.579 255.895C133.456 257.091 131.283 256.489 130.342 255.137C129.402 253.786 129.347 252.033 129.329 250.389C129.201 240.939 129.082 231.498 128.955 222.047C129.886 222.422 130.817 222.796 131.749 223.161C126.663 215.948 124.773 206.68 126.197 197.988C124.344 199.494 123.293 201.823 123.449 204.261L127.485 268.833C127.95 276.275 136.35 280.356 142.486 276.138L166.911 259.337C166.884 259.255 166.847 259.173 166.82 259.091Z" fill="white"/>
</g>
<path d="M746.241 529.845L746.149 535.616L749.436 541.049L735.311 548.298L724.856 543.77L726.016 537.122L728.856 533.47L728.007 526.987L746.241 529.845Z" fill="url(#paint13_linear_148_3516)"/>
<path d="M749.217 537.999L750.596 543.204L751.08 545.678C751.226 546.984 751.5 548.262 751.92 549.504C752.513 551.248 753.226 553.996 752.358 555.156C751.034 556.918 746.332 562.068 728.527 557.512C728.527 557.512 713.562 560.744 713.324 548.39V546.208C713.324 544.482 716.164 544.592 718.218 544.117C718.949 543.953 719.606 543.542 720.072 542.948L726.007 537.114C726.217 536.913 726.564 536.958 726.701 537.214C727.824 539.323 732.298 546.737 736.105 539.25C736.343 538.794 737.849 536.255 737.849 536.255L744.624 535.059C746.688 534.712 748.688 535.981 749.217 537.999Z" fill="#4D5068"/>
<path d="M715.004 551.878C714.502 551.549 714.045 551.212 713.616 550.874C715.707 560.278 728.536 557.503 728.536 557.503C746.332 562.059 751.043 556.918 752.367 555.147C753.235 553.996 752.532 551.285 751.938 549.532C751.755 548.993 751.6 548.445 751.472 547.888C747.19 550.846 740.333 554.572 731.074 552.682C731.074 552.682 721.624 556.261 715.004 551.878Z" fill="white"/>
<path d="M749.436 541.049C749.08 539.971 748.231 538.912 747.099 538.857C746.039 538.803 745.108 539.67 744.697 540.647C744.286 541.624 744.25 542.72 744.122 543.779C743.684 547.303 742.077 550.682 739.611 553.238L742.36 553.394C743.209 555.211 745.428 555.877 747.418 556.124C748.021 556.197 748.651 556.252 749.235 556.078C750.203 555.795 750.897 554.982 751.536 554.197C751.956 553.677 752.385 553.138 752.714 552.554C752.568 551.504 752.239 550.371 751.947 549.495C751.582 548.417 751.335 547.303 751.171 546.171C750.796 545.587 750.459 544.984 750.23 544.354C749.829 543.295 749.792 542.126 749.436 541.049Z" fill="white"/>
<path d="M723.961 547.924C723.989 547.888 723.98 547.906 723.943 547.979C723.934 548.025 723.934 548.061 723.925 548.107C723.925 548.189 723.952 548.271 723.98 548.344C724.016 548.481 724.089 548.637 724.135 548.746C724.253 549.029 724.354 549.276 724.445 549.541C724.646 550.088 724.747 550.664 724.865 551.23C724.911 551.449 725.157 551.595 725.367 551.558C725.596 551.522 725.76 551.339 725.769 551.102C725.787 550.463 725.623 549.833 725.395 549.239C725.276 548.938 725.148 548.655 724.957 548.381C724.856 548.235 724.765 548.089 724.628 547.97C724.564 547.915 724.509 547.851 724.436 547.815C724.4 547.797 724.354 547.778 724.317 547.76C724.29 547.751 724.217 547.76 724.208 547.751C724.107 547.724 723.952 547.778 723.961 547.924Z" fill="white"/>
<path d="M727.312 545.696C727.631 546.08 727.905 546.509 728.179 546.92C728.462 547.349 728.7 547.796 728.891 548.271C729.074 548.746 729.22 549.239 729.311 549.741C729.412 550.262 729.412 550.773 729.54 551.284C729.649 551.723 730.279 551.695 730.398 551.284C730.571 550.7 730.489 550.134 730.389 549.54C730.288 548.974 730.133 548.426 729.914 547.888C729.695 547.358 729.43 546.847 729.111 546.363C728.773 545.861 728.371 545.468 727.905 545.094C727.485 544.756 726.965 545.267 727.312 545.696Z" fill="white"/>
<path d="M772.089 529.845L772.181 535.616L768.894 541.049L783.019 548.298L793.474 543.77L792.323 537.122L789.474 533.47L791.127 526.987L772.089 529.845Z" fill="url(#paint14_linear_148_3516)"/>
<path d="M769.113 537.999L767.734 543.204L767.25 545.678C767.104 546.984 766.83 548.262 766.41 549.504C765.817 551.248 765.105 553.996 765.972 555.156C767.296 556.918 771.998 562.068 789.803 557.512C789.803 557.512 804.769 560.744 805.006 548.39V546.208C805.006 544.482 802.167 544.592 800.112 544.117C799.382 543.953 798.724 543.542 798.259 542.948L792.324 537.114C792.114 536.913 791.767 536.958 791.63 537.214C790.506 539.323 786.032 546.737 782.225 539.25C781.987 538.794 780.481 536.255 780.481 536.255L773.706 535.059C771.642 534.712 769.643 535.981 769.113 537.999Z" fill="#4D5068"/>
<path d="M803.326 551.878C803.828 551.549 804.285 551.212 804.714 550.874C802.623 560.278 789.794 557.503 789.794 557.503C771.998 562.059 767.287 556.918 765.963 555.147C765.095 553.996 765.798 551.285 766.392 549.532C766.575 548.993 766.73 548.445 766.858 547.888C771.14 550.846 777.997 554.572 787.256 552.682C787.256 552.682 796.706 556.261 803.326 551.878Z" fill="white"/>
<path d="M782.152 448.198C789.721 448.198 795.857 442.062 795.857 434.493C795.857 426.924 789.721 420.788 782.152 420.788C774.582 420.788 768.446 426.924 768.446 434.493C768.446 442.062 774.582 448.198 782.152 448.198Z" fill="#F7A66A"/>
<path d="M782.356 370.832C795.411 367.75 803.494 354.668 800.412 341.614C797.329 328.56 784.248 320.476 771.194 323.558C758.139 326.641 750.055 339.722 753.138 352.777C756.22 365.831 769.302 373.915 782.356 370.832Z" fill="#F7A66A"/>
<path d="M801.125 347.294L795.856 434.492H768.446L756.375 334.209L801.125 347.294Z" fill="#F7A66A"/>
<path d="M795.857 434.493L797.436 458.05C798.24 470.011 797.774 482.027 796.048 493.888L790.844 529.69C790.844 529.69 779.932 537.415 771.751 529.69L768.455 456.945V434.493H795.857Z" fill="#F7A66A"/>
<path d="M752.55 347.294C752.55 342.473 753.956 337.99 756.376 334.219V334.21H756.385C760.704 327.48 768.246 323.006 776.838 323.006C790.251 323.006 801.126 333.881 801.126 347.294C801.126 348.262 801.062 349.212 800.952 350.143L795.857 434.484L797.437 458.041C798.24 470.003 797.774 482.019 796.049 493.879L790.844 529.681C790.844 529.681 779.933 537.406 771.752 529.681L768.456 456.936V434.484L760.074 364.844C755.435 360.433 752.55 354.206 752.55 347.294Z" fill="#F7A66A"/>
<path d="M758.33 364.477C767.815 354.992 767.815 339.614 758.33 330.129C748.845 320.644 733.467 320.644 723.982 330.129C714.498 339.614 714.498 354.992 723.983 364.477C733.467 373.962 748.845 373.962 758.33 364.477Z" fill="#F7A66A"/>
<path d="M734.717 445.897C742.286 445.897 748.422 439.761 748.422 432.192C748.422 424.623 742.286 418.487 734.717 418.487C727.148 418.487 721.012 424.623 721.012 432.192C721.012 439.761 727.148 445.897 734.717 445.897Z" fill="#F7A66A"/>
<path d="M748.368 433.407L761.644 344.5H716.885L721.012 432.192L748.368 433.407Z" fill="#F7A66A"/>
<path d="M748.367 433.407L750.303 461.045C750.659 466.086 750.613 471.144 750.184 476.184L745.984 529.7C745.984 529.7 737.949 537.123 727.649 529.7C727.649 529.7 725.504 473.08 721.687 454.489C721.24 452.298 721.021 450.079 721.021 447.842V432.192L748.367 433.407Z" fill="#F7A66A"/>
<path d="M716.939 345.715L716.885 344.5H717.049C718.437 332.402 728.7 323.006 741.173 323.006C754.586 323.006 765.46 333.881 765.46 347.294C765.46 353.804 765.031 363.611 760.858 367.966L748.368 433.397L750.303 461.036C750.659 466.076 750.614 471.135 750.185 476.175L746.934 529.937C746.934 529.937 737.949 537.114 727.65 529.69C727.65 529.69 725.504 473.07 721.688 454.48C721.24 452.289 721.021 450.07 721.021 447.833V432.192L717.213 351.193C717.013 349.924 716.903 348.627 716.903 347.294C716.885 346.765 716.912 346.235 716.939 345.715Z" fill="#F7A66A"/>
<path d="M768.893 541.049C769.249 539.971 770.098 538.912 771.231 538.857C772.29 538.803 773.221 539.67 773.632 540.647C774.043 541.624 774.079 542.72 774.207 543.779C774.645 547.303 776.253 550.682 778.718 553.238L775.969 553.394C775.12 555.211 772.902 555.877 770.911 556.124C770.308 556.197 769.678 556.252 769.094 556.078C768.126 555.795 767.432 554.982 766.793 554.197C766.373 553.677 765.944 553.138 765.615 552.554C765.761 551.504 766.09 550.371 766.382 549.495C766.747 548.417 766.994 547.303 767.158 546.171C767.533 545.587 767.871 544.984 768.099 544.354C768.501 543.295 768.537 542.126 768.893 541.049Z" fill="white"/>
<path d="M794.369 547.924C794.341 547.888 794.351 547.906 794.387 547.979C794.396 548.025 794.396 548.061 794.405 548.107C794.405 548.189 794.378 548.271 794.351 548.344C794.314 548.481 794.241 548.637 794.195 548.746C794.077 549.029 793.976 549.276 793.885 549.541C793.684 550.088 793.584 550.664 793.465 551.23C793.419 551.449 793.173 551.595 792.963 551.558C792.734 551.522 792.57 551.339 792.561 551.102C792.543 550.463 792.707 549.833 792.935 549.239C793.054 548.938 793.191 548.655 793.374 548.381C793.474 548.235 793.565 548.089 793.702 547.97C793.766 547.915 793.821 547.851 793.894 547.815C793.931 547.797 793.976 547.778 794.013 547.76C794.04 547.751 794.113 547.76 794.122 547.751C794.223 547.724 794.378 547.778 794.369 547.924Z" fill="white"/>
<path d="M791.017 545.696C790.698 546.08 790.424 546.509 790.15 546.92C789.867 547.349 789.629 547.796 789.438 548.271C789.255 548.746 789.109 549.239 789.018 549.741C788.917 550.262 788.917 550.773 788.789 551.284C788.68 551.723 788.05 551.695 787.931 551.284C787.757 550.7 787.84 550.134 787.94 549.54C788.041 548.974 788.196 548.426 788.415 547.888C788.634 547.358 788.899 546.847 789.218 546.363C789.556 545.861 789.958 545.468 790.424 545.094C790.844 544.756 791.364 545.267 791.017 545.696Z" fill="white"/>
<g opacity="0.5">
<path opacity="0.5" d="M716.885 344.5H717.049C717.086 344.162 717.132 343.834 717.186 343.496C717.205 343.404 717.214 343.322 717.232 343.231C717.278 342.948 717.333 342.665 717.387 342.382C717.396 342.327 717.406 342.281 717.415 342.227C717.433 342.135 717.46 342.044 717.479 341.944C717.497 341.87 717.515 341.807 717.524 341.734C717.561 341.578 717.597 341.414 717.634 341.259C717.652 341.177 717.68 341.094 717.698 341.003C717.716 340.939 717.734 340.875 717.753 340.811C717.771 340.738 717.798 340.656 717.817 340.583C717.844 340.473 717.88 340.355 717.908 340.245C717.935 340.172 717.953 340.09 717.981 340.017C718.072 339.716 718.182 339.405 718.282 339.113C718.31 339.04 718.337 338.958 718.364 338.885C718.456 338.647 718.538 338.41 718.638 338.182C718.675 338.09 718.711 337.999 718.748 337.908C718.866 337.625 718.994 337.333 719.122 337.059C719.159 336.986 719.186 336.922 719.223 336.849C719.332 336.629 719.433 336.41 719.551 336.191C719.606 336.091 719.652 335.99 719.707 335.89C719.825 335.662 719.953 335.442 720.081 335.223C720.136 335.132 720.19 335.041 720.245 334.949C720.254 334.931 720.264 334.922 720.273 334.904C720.391 334.703 720.519 334.502 720.638 334.301C720.702 334.192 720.775 334.091 720.848 333.982C720.903 333.899 720.958 333.817 721.012 333.744C721.058 333.671 721.113 333.598 721.158 333.525C721.167 333.507 721.177 333.488 721.195 333.47C721.259 333.379 721.323 333.278 721.396 333.187C721.56 332.959 721.724 332.731 721.898 332.511C721.98 332.402 722.071 332.292 722.154 332.183C722.19 332.128 722.236 332.082 722.272 332.028C722.336 331.945 722.4 331.863 722.473 331.79C722.482 331.781 722.482 331.781 722.482 331.772C722.574 331.662 722.665 331.553 722.756 331.443C722.93 331.242 723.112 331.041 723.295 330.841C723.395 330.731 723.505 330.621 723.615 330.512C723.715 330.402 723.825 330.293 723.934 330.183L723.943 330.174C724.062 330.055 724.172 329.946 724.29 329.827C724.299 329.818 724.309 329.809 724.318 329.8C724.418 329.708 724.518 329.617 724.619 329.517C724.628 329.507 724.637 329.498 724.646 329.489C724.847 329.307 725.039 329.124 725.249 328.95C725.349 328.859 725.45 328.777 725.55 328.686C725.687 328.576 725.824 328.457 725.961 328.348C727.577 327.051 729.367 325.946 731.284 325.088C731.841 325.207 732.435 325.517 733.083 326.102C734.553 327.426 735.238 329.389 736.407 330.977C739.301 334.94 744.844 336.109 749.701 335.388C754.559 334.666 759.024 332.402 763.626 330.704C770.784 328.065 778.436 326.759 786.069 326.878C787.521 326.896 788.972 326.978 790.415 327.143C796.871 331.507 801.107 338.894 801.107 347.276C801.107 355.357 790.744 360.132 784.288 362.643C778.344 364.962 771.935 366.779 765.634 365.766C763.406 365.41 761.115 364.624 759.672 362.899C756.294 365.656 751.573 365.83 747.437 367.19C743.547 368.468 740.05 370.906 737.493 374.102C736.763 375.024 736.087 376.339 736.763 377.307C737.128 377.837 737.831 378.129 738.023 378.741C738.315 379.681 737.228 380.411 736.37 380.886C731.065 383.826 729.842 389.031 729.056 394.546C728.226 400.463 728.819 406.754 729.385 412.67C729.732 416.286 730.225 420.139 731.367 423.609C732.252 426.303 734.051 428.649 734.48 431.498C733.896 432.521 732.298 432.046 731.458 431.224C730.618 430.402 729.842 429.27 728.673 429.243C728.125 430.996 728.856 432.868 729.531 434.575C730.727 437.643 732.024 440.884 732.608 444.126C728.655 444.053 726.062 441.378 727.413 447.86C728.353 452.353 730.253 456.598 732.161 460.744C735.558 468.112 738.982 475.262 740.534 483.279C740.598 483.598 740.653 483.927 740.589 484.246C740.406 485.123 739.31 485.543 738.443 485.333C737.575 485.123 736.891 484.466 736.252 483.845C735.576 483.178 734.891 482.512 734.215 481.845C733.85 481.489 733.448 481.115 732.946 481.087C732.115 481.042 731.54 482 731.613 482.822C731.686 483.644 732.17 484.365 732.553 485.096C734.745 489.278 733.12 493.094 732.91 497.413C732.718 501.211 733.43 505.448 733.841 509.237C734.699 517.008 735.914 524.906 734.416 532.576C734.407 532.621 734.398 532.667 734.389 532.713C733.485 532.53 732.544 532.256 731.595 531.863C731.567 531.854 731.531 531.836 731.504 531.827C731.403 531.79 731.303 531.745 731.202 531.699C731.157 531.681 731.102 531.653 731.056 531.635C730.965 531.599 730.873 531.553 730.782 531.507C730.718 531.48 730.664 531.452 730.6 531.425C730.517 531.389 730.426 531.343 730.344 531.297C730.298 531.279 730.262 531.252 730.216 531.233C730.198 531.224 730.189 531.215 730.17 531.215C730.161 531.206 730.152 531.206 730.134 531.197C730.052 531.16 729.979 531.115 729.897 531.069C729.878 531.06 729.851 531.042 729.833 531.032C729.778 531.005 729.723 530.978 729.677 530.941C729.604 530.895 729.531 530.859 729.449 530.813C729.376 530.768 729.294 530.722 729.221 530.686C729.212 530.686 729.212 530.676 729.203 530.676C729.13 530.631 729.066 530.594 728.993 530.549C728.965 530.53 728.938 530.512 728.901 530.494C728.856 530.466 728.819 530.439 728.773 530.412C728.755 530.402 728.737 530.393 728.719 530.384C728.655 530.348 728.591 530.302 728.527 530.265C728.518 530.265 728.518 530.256 728.509 530.256C728.463 530.229 728.426 530.202 728.381 530.174C728.326 530.138 728.28 530.101 728.226 530.074C728.171 530.037 728.116 530.001 728.061 529.964C727.906 529.864 727.751 529.754 727.596 529.645C727.596 529.645 725.45 473.025 721.633 454.435C721.186 452.243 720.967 450.024 720.967 447.787V432.192L717.159 351.193C716.958 349.924 716.849 348.627 716.849 347.294C716.849 346.765 716.876 346.235 716.903 345.705L716.885 344.5Z" fill="#B97D50"/>
</g>
<path d="M804.932 322.755C808.009 322.028 809.915 318.945 809.188 315.868C808.462 312.791 805.378 310.885 802.301 311.612C799.224 312.338 797.319 315.422 798.045 318.499C798.772 321.576 801.855 323.481 804.932 322.755Z" fill="#CE796B"/>
<path d="M841.191 291.952C847.091 291.952 851.874 287.169 851.874 281.269C851.874 275.369 847.091 270.586 841.191 270.586C835.291 270.586 830.508 275.369 830.508 281.269C830.508 287.169 835.291 291.952 841.191 291.952Z" fill="#CE796B"/>
<path d="M812.898 230.415C813.412 222.524 807.432 215.711 799.542 215.197C791.651 214.683 784.838 220.663 784.324 228.553C783.81 236.444 789.79 243.257 797.681 243.771C805.571 244.285 812.384 238.305 812.898 230.415Z" fill="#CE796B"/>
<path d="M811.014 222.303L849.437 274.193L830.983 284.958L789.703 240.701L811.014 222.303Z" fill="#CE796B"/>
<path d="M848.194 289.332L808.083 321.125L799.08 313.875L834.188 273.207L848.194 289.332Z" fill="#CE796B"/>
<path d="M797.957 316.843L796.286 326.202L795.939 331.516C795.757 334.301 796.697 337.04 798.542 339.131L803.901 345.203C804.404 345.769 805.125 346.098 805.892 346.098H807.654L812.795 349.065C813.178 349.294 813.68 349.084 813.79 348.645L813.936 348.061C814.31 346.6 814.027 345.048 813.151 343.815L808.448 337.232L808.558 331.891L810.722 332.685L812.274 336.602C813.078 338.62 814.868 340.063 817.004 340.419H817.013V330.293C817.013 327.508 816.036 324.814 814.256 322.668L809.407 316.843H797.957Z" fill="#CE796B"/>
<path d="M771.669 193.569L771.322 209.073L742.049 207.94V195.285L771.669 193.569Z" fill="#E49486"/>
<path d="M732.672 175.983C731.868 172.887 733.74 169.719 736.835 168.915C739.931 168.112 743.099 169.984 743.902 173.079C744.706 176.174 742.834 179.343 739.739 180.146C736.643 180.95 733.475 179.078 732.672 175.983ZM733.539 175.764C734.215 178.384 736.899 179.964 739.52 179.288C742.14 178.612 743.72 175.928 743.044 173.307C742.369 170.687 739.684 169.107 737.064 169.783C734.443 170.459 732.863 173.143 733.539 175.764Z" fill="#231F20"/>
<path d="M744.04 157.356L739.977 169.29C739.237 170.166 738.918 171.326 739.109 172.467L739.328 173.718C739.474 174.549 739.274 175.398 738.79 176.083C737.767 177.526 736.05 182.876 736.58 184.986C736.991 186.629 736.397 190.254 736.48 194.536C736.553 198.134 740.534 199.741 744.122 199.458L764.876 197.814L775.185 185.844C775.176 185.826 786.324 149.622 744.04 157.356Z" fill="#E49486"/>
<path d="M736.571 184.977C736.041 182.867 737.758 177.526 738.781 176.074C739.264 175.389 739.456 174.54 739.319 173.709L739.1 172.458C738.908 171.326 739.219 170.167 739.967 169.281L744.031 157.347C744.296 157.301 744.56 157.256 744.825 157.21C744.085 160.625 743.154 163.93 742.013 167.062C741.611 168.158 741.182 169.272 741.081 170.523C740.808 173.883 742.935 177.444 741.821 180.338C741.62 180.859 741.328 181.279 741.081 181.753C738.753 186.228 740.917 193.094 740.004 198.709C739.995 198.773 739.977 198.837 739.967 198.901C737.995 198.161 736.498 196.719 736.452 194.518C736.388 190.245 736.982 186.611 736.571 184.977Z" fill="#EA9C90"/>
<path d="M763.196 194.564C756.649 191.66 755.764 185.734 754.732 178.302C754.522 176.814 754.074 174.996 752.623 174.622C751.527 174.339 750.413 175.097 749.792 176.037C749.171 176.978 748.897 178.101 748.404 179.114C748.222 179.489 747.957 179.9 747.537 179.955C746.678 180.073 746.459 178.804 746.56 177.946C747.08 173.481 748.742 167.829 745.884 163.866C743.976 161.227 741.702 159.584 740.186 156.607C738.643 153.576 737.529 150.243 737.712 146.792C737.977 141.852 741.711 136.83 746.66 136.684C747.692 136.656 748.742 136.839 749.646 137.323C750.632 137.853 751.399 138.711 752.111 139.578C753.983 141.834 755.754 144.317 758.347 145.687C760.712 146.938 763.488 147.111 766.163 147.184C768.839 147.257 771.587 147.285 774.071 148.28C776.554 149.284 778.736 151.53 778.791 154.206C781.129 154.379 783.165 156.096 784.188 158.205C786.653 163.3 784.644 171.481 782.818 176.521C780.672 182.438 777.266 187.807 773.87 193.066C773.295 193.952 772.701 194.865 771.806 195.431C770.145 196.481 767.981 196.025 766.081 195.541C765.004 195.267 764.054 194.938 763.196 194.564Z" fill="#231F20"/>
<path d="M747.154 173.873L747.272 172.988L732.974 173.399L732.992 174.293L747.154 173.873Z" fill="#231F20"/>
<path d="M759.617 176.905C760.539 179.699 759.024 182.721 756.22 183.643C753.426 184.565 750.404 183.05 749.482 180.247C748.56 177.453 750.075 174.43 752.879 173.508C755.682 172.586 758.695 174.111 759.617 176.905Z" fill="#E49486"/>
<path d="M778.444 211.83C778.444 211.83 774.436 200.608 761.562 198.782C755.544 197.933 749.436 199.531 744.487 203.055L735.932 209.136L778.444 211.83Z" fill="#00A5CF"/>
<path d="M712.31 234.62C720.217 234.62 726.627 228.21 726.627 220.303C726.627 212.396 720.217 205.986 712.31 205.986C704.403 205.986 697.993 212.396 697.993 220.303C697.993 228.21 704.403 234.62 712.31 234.62Z" fill="#CE796B"/>
<path d="M669.035 229.027C674.806 227.8 678.49 222.127 677.264 216.356C676.037 210.584 670.364 206.9 664.593 208.126C658.821 209.353 655.137 215.026 656.364 220.798C657.59 226.569 663.263 230.253 669.035 229.027Z" fill="#CE796B"/>
<path d="M673.494 182.881C673.791 179.733 671.479 176.94 668.332 176.643C665.184 176.347 662.391 178.658 662.094 181.806C661.797 184.953 664.109 187.746 667.256 188.043C670.404 188.34 673.197 186.029 673.494 182.881Z" fill="#CE796B"/>
<path d="M708.676 206.425C703.024 210.068 696.45 212.013 689.73 212.031L675.148 212.068L667.716 229.316L716.794 231.909L708.676 206.425Z" fill="#CE796B"/>
<path d="M675.148 212.068C674.929 211.794 673.441 182.356 673.441 182.356H661.991L656.11 217.583L675.148 212.068Z" fill="#CE796B"/>
<path d="M673.44 182.356L675.586 179.462L680.215 177.17C682.544 176.019 684.306 173.983 685.109 171.518L687.639 163.775C687.712 163.556 687.547 163.318 687.31 163.318H686.771C685.292 163.318 683.932 164.113 683.21 165.409L680.781 169.765L679.458 145.988C679.412 145.212 678.773 144.6 677.996 144.6C677.202 144.6 676.554 145.23 676.526 146.016L676.125 157.712L675.166 156.233C674.819 155.694 674.216 155.375 673.577 155.393L667.542 155.566C667.03 155.585 666.547 155.813 666.209 156.206L666.108 156.324C665.798 156.689 665.378 156.936 664.912 157.027L664.328 157.146C662.94 157.438 661.908 158.598 661.771 160.004L660.968 168.687C660.621 172.467 660.803 176.266 661.534 179.991L661.99 182.347H673.44V182.356Z" fill="#CE796B"/>
<path d="M803.681 216.103L778.672 207.94C777.458 207.548 776.317 206.936 775.312 206.16L774.481 205.512C773.988 205.128 773.386 204.909 772.756 204.891L717.542 205.767L721.012 283.023L717.049 344.5C717.049 344.5 767.944 361.081 801.125 344.838L795.71 300.919C795.19 294.628 795.299 288.3 796.03 282.027L803.681 216.103Z" fill="#F7A66A"/>
<path d="M721.012 283.022L708.348 249.01C708.065 247.549 707.024 246.353 705.617 245.879L662.237 231.187C656.229 229.261 652.568 223.198 653.673 216.98L658.357 190.573L675.157 191.907L677.422 210.926L712.319 205.959L717.551 205.749L730.06 237.752L721.012 283.022Z" fill="#F7A66A"/>
<path d="M849.856 271.08L813.123 221.089C811.918 219.454 810.229 218.231 808.293 217.601L802.632 215.765L778.682 207.95C777.467 207.557 776.326 206.945 775.322 206.169L774.491 205.521C773.998 205.137 773.395 204.918 772.765 204.9L717.551 205.776L712.319 205.986L677.422 210.954L675.157 191.934L658.357 190.601L653.673 217.007C652.568 223.216 656.229 229.288 662.237 231.215L705.617 245.906C707.024 246.381 708.065 247.577 708.348 249.038L721.012 283.05L717.049 344.527C717.049 344.527 767.944 361.109 801.125 344.865L795.711 300.946C795.19 294.655 795.3 288.328 796.03 282.055L799.08 255.758L823.632 279.106L806.795 303.32L818.455 314.761L846.861 292.099C853.362 287.022 854.686 277.736 849.856 271.08Z" fill="url(#paint15_linear_148_3516)"/>
<path d="M818.455 314.724L811.141 318.778L801.837 310.689L806.795 303.293L818.455 314.724Z" fill="#007C9B"/>
<path d="M816.191 313.921C816.054 314.131 815.853 314.231 815.634 314.359C815.442 314.469 815.251 314.588 815.068 314.697C814.694 314.925 814.301 315.135 813.918 315.364C813.534 315.592 813.16 315.811 812.776 316.039C812.411 316.258 812.037 316.56 811.608 316.642C811.361 316.688 811.133 316.441 811.27 316.204C811.498 315.82 811.909 315.583 812.265 315.327C812.639 315.062 813.014 314.807 813.397 314.56C813.771 314.323 814.146 314.085 814.529 313.875C814.721 313.775 814.922 313.665 815.114 313.565C815.342 313.446 815.561 313.3 815.826 313.309C816.136 313.318 816.356 313.656 816.191 313.921Z" fill="#005368"/>
<path d="M813.37 311.721C813.242 311.821 813.151 311.958 813.023 312.059C812.886 312.159 812.758 312.269 812.612 312.36C812.357 312.533 812.101 312.716 811.854 312.917C811.325 313.337 810.804 313.775 810.275 314.186C810.01 314.396 809.626 314.78 809.27 314.551C809.079 314.433 809.051 314.168 809.161 313.985C809.261 313.812 809.453 313.711 809.608 313.593C810.129 313.209 810.622 312.78 811.142 312.378C811.443 312.15 811.745 311.931 812.064 311.73C812.238 311.62 812.411 311.529 812.603 311.456C812.786 311.383 812.959 311.374 813.151 311.337C813.352 311.292 813.562 311.556 813.37 311.721Z" fill="#005368"/>
<path d="M811.078 309.155C810.996 309.374 810.905 309.538 810.722 309.694C810.549 309.84 810.375 309.977 810.202 310.123C809.855 310.415 809.526 310.716 809.188 311.018C808.859 311.31 808.531 311.602 808.22 311.912C807.882 312.241 807.572 312.634 807.188 312.899C806.814 313.154 806.376 312.661 806.586 312.296C806.814 311.903 807.207 311.584 807.535 311.273C807.864 310.954 808.211 310.643 808.558 310.333C808.905 310.031 809.288 309.748 809.663 309.484C809.845 309.356 810.028 309.219 810.211 309.091C810.421 308.954 810.622 308.899 810.877 308.89C810.996 308.89 811.124 309.027 811.078 309.155Z" fill="#005368"/>
<path d="M808.175 306.9C808.047 307.101 807.983 307.311 807.809 307.484C807.663 307.621 807.526 307.767 807.389 307.913C807.097 308.233 806.787 308.534 806.467 308.835C806.157 309.128 805.883 309.456 805.609 309.776C805.326 310.105 805.034 310.506 804.614 310.643C804.422 310.707 804.23 310.506 804.285 310.315C804.404 309.895 804.787 309.557 805.052 309.219C805.317 308.89 805.572 308.552 805.801 308.205C806.047 307.831 806.321 307.475 806.65 307.174C806.814 307.028 806.978 306.881 807.152 306.744C807.371 306.571 807.599 306.553 807.855 306.48C808.083 306.416 808.312 306.69 808.175 306.9Z" fill="#005368"/>
<path d="M675.148 191.916L673.441 182.356H661.991L658.348 190.583L675.148 191.916Z" fill="#00A5CF"/>
<path d="M671.559 184C671.605 184.1 671.696 184.146 671.742 184.246C671.778 184.337 671.806 184.429 671.824 184.529C671.888 184.767 671.943 185.013 672.007 185.251C672.125 185.716 672.235 186.182 672.335 186.657C672.445 187.122 672.545 187.597 672.628 188.072C672.71 188.556 672.819 189.049 672.828 189.551C672.838 189.962 672.253 190.017 672.135 189.642C671.988 189.168 671.924 188.665 671.842 188.181C671.76 187.725 671.687 187.268 671.605 186.812C671.523 186.355 671.441 185.899 671.349 185.442C671.304 185.196 671.249 184.949 671.203 184.703C671.185 184.602 671.157 184.511 671.148 184.41C671.139 184.292 671.203 184.21 671.194 184.1C671.203 183.917 671.477 183.826 671.559 184Z" fill="#007C9B"/>
<path d="M669.523 184.063C669.724 184.237 669.706 184.483 669.706 184.73C669.697 185.004 669.688 185.287 669.688 185.561C669.679 186.099 669.67 186.629 669.642 187.168C669.596 188.227 669.633 189.359 669.405 190.4C669.341 190.674 668.875 190.692 668.839 190.4C668.683 189.323 668.793 188.19 668.83 187.113C668.848 186.556 668.884 185.999 668.912 185.451C668.93 185.004 668.82 184.328 669.213 184.036C669.295 183.945 669.441 183.99 669.523 184.063Z" fill="#007C9B"/>
<path d="M666.994 184.155C666.83 185.232 666.464 186.246 666.209 187.296C666.081 187.807 665.981 188.318 665.889 188.83C665.844 189.085 665.798 189.341 665.752 189.597C665.697 189.898 665.579 190.035 665.387 190.263C665.323 190.336 665.186 190.318 665.14 190.236C665.004 189.971 664.921 189.807 664.958 189.487C664.985 189.231 665.013 188.967 665.058 188.711C665.15 188.163 665.277 187.615 665.414 187.067C665.697 185.99 666.026 184.913 666.684 184.009C666.802 183.863 667.031 183.963 666.994 184.155Z" fill="#007C9B"/>
<path d="M663.826 184.1C663.844 184.556 663.689 184.995 663.534 185.424C663.388 185.853 663.233 186.273 663.087 186.702C662.94 187.131 662.804 187.56 662.657 187.98C662.52 188.382 662.447 188.903 662.082 189.149C661.945 189.241 661.799 189.14 661.753 189.012C661.589 188.611 661.854 188.081 661.973 187.697C662.1 187.268 662.256 186.839 662.402 186.41C662.548 185.981 662.694 185.552 662.858 185.141C663.023 184.721 663.187 184.292 663.507 183.972C663.625 183.844 663.826 183.945 663.826 184.1Z" fill="#007C9B"/>
<g opacity="0.15">
<path opacity="0.15" d="M819.433 313.784C820.857 306.48 827.304 301.394 833.312 296.993C831.485 296.545 829.65 296.098 827.824 295.651C828.509 292.61 831.787 291.058 834.581 289.67C837.512 288.218 840.424 286.374 842.086 283.561C843.748 280.74 843.766 276.723 841.356 274.513C840.662 273.874 839.767 273.372 839.42 272.495C839.018 271.509 839.438 270.404 839.703 269.372C840.991 264.277 838.242 258.936 834.517 255.238C830.782 251.54 826.098 248.965 822.072 245.596C816.164 240.647 811.818 234.127 807.481 227.754C805.353 224.632 803.18 221.472 800.286 219.043C796.168 215.592 790.927 213.866 786.206 211.31C785.147 210.735 784.097 210.095 783.102 209.374L802.65 215.756L808.312 217.592C810.247 218.222 811.936 219.436 813.142 221.08L849.875 271.071C854.714 277.727 853.39 287.022 846.88 292.062L819.415 313.976C819.415 313.912 819.424 313.848 819.433 313.784Z" fill="white"/>
</g>
<g opacity="0.5">
<path opacity="0.5" d="M814.976 294.537C813.196 296.317 811.36 298.125 809.343 299.632L823.632 279.078L799.171 255.822C799.226 255.621 799.29 255.421 799.344 255.229C808.146 262.935 818.218 269.199 829.019 273.691C829.284 275.517 828.225 277.453 826.536 278.211C827.841 278.503 829.147 278.804 830.453 279.097C825.294 284.246 820.135 289.387 814.976 294.537Z" fill="#007C9B"/>
</g>
<g opacity="0.5">
<path opacity="0.5" d="M792.478 346.262C790.423 337.999 788.36 329.745 786.305 321.481C785.493 318.231 784.689 314.98 783.877 311.73C783.356 309.63 782.571 307.228 780.544 306.48C779.01 305.914 777.239 306.507 775.696 305.959C773.897 305.32 772.938 303.238 773.029 301.33C773.121 299.422 774.052 297.668 775.029 296.025C780.334 287.159 791.172 281.16 794.66 271.454C796.413 266.587 797.555 261.401 798.997 256.425L796.03 282.027C795.299 288.3 795.199 294.628 795.71 300.919L798.614 324.485C799.235 329.544 799.7 334.657 800.486 339.688L801.125 344.838C798.504 346.125 795.765 347.203 792.953 348.098C792.779 347.486 792.624 346.865 792.478 346.262Z" fill="#007C9B"/>
</g>
<g opacity="0.5">
<path opacity="0.5" d="M662.237 231.196C656.229 229.27 652.568 223.207 653.673 216.989L656.202 202.736C656.284 204.462 656.375 206.187 656.457 207.922C656.576 210.342 656.759 212.935 658.229 214.852C659.708 216.779 662.995 217.473 664.493 215.574C665.643 215.418 665.889 217.318 665.095 218.158C664.301 219.007 663.05 219.381 662.438 220.367C661.58 221.737 662.438 223.627 663.78 224.522C665.123 225.417 666.793 225.599 668.373 225.901C675.258 227.215 680.846 231.47 687.429 233.516C694.734 235.78 702.212 236.419 709.644 238.035C721.35 240.592 728.061 248.079 735.886 256.37C736.598 257.119 737.338 257.94 737.493 258.963C737.648 259.986 736.89 261.2 735.858 261.1C735.365 261.054 734.955 260.725 734.535 260.461C732.781 259.365 730.471 259.21 728.59 260.059C713.534 266.898 739.648 287.688 740.908 296.18C739.091 296.837 737.237 295.322 736.059 293.797C734.882 292.272 733.658 290.446 731.75 290.172C729.987 291.195 729.494 293.578 729.896 295.568C730.298 297.559 731.366 299.348 732.069 301.257C733.43 304.991 733.32 309.082 733.192 313.054C733.083 316.478 730.371 347.696 726.28 347.011C720.546 345.623 717.067 344.491 717.067 344.491L721.03 283.014L708.366 249.001C708.083 247.541 707.042 246.344 705.636 245.87L662.237 231.196Z" fill="#007C9B"/>
</g>
<g opacity="0.5">
<path opacity="0.5" d="M779.166 442.948C779.796 444.345 780.189 445.788 780.17 447.313C779.33 447.806 778.244 447.258 777.568 446.555C776.892 445.852 776.345 444.957 775.45 444.573C771.149 442.702 774.838 454.845 775.094 456.389C775.97 461.621 776.518 466.907 776.491 472.212C776.481 474.504 776.198 477.252 774.162 478.293C773.77 477.225 770.683 466.14 769.113 472.057C768.994 467.026 768.446 461.986 768.446 456.955V434.502L766.565 418.879C768.62 423.983 770.93 428.978 773.487 433.845C775.057 436.812 777.723 439.734 779.166 442.948Z" fill="#B97D50"/>
</g>
<g opacity="0.5">
<path opacity="0.5" d="M780.526 455.594C780.535 454.991 781.174 454.161 781.503 454.672L781.649 454.234C782.37 459.703 784.197 464.953 785.585 470.295C786.972 475.636 787.922 481.242 786.845 486.657C786.662 487.579 786.242 488.675 785.311 488.821C784.617 488.93 783.95 488.41 783.649 487.78C783.348 487.15 783.311 486.429 783.274 485.726C782.955 480.402 781.594 475.234 780.773 469.984C779.996 465.017 780.435 460.543 780.526 455.594Z" fill="#B97D50"/>
</g>
<g opacity="0.1">
<path opacity="0.1" d="M788.205 510.89C789.383 503.795 790.552 496.692 791.73 489.597C791.821 489.031 791.921 488.465 792.013 487.89C792.871 482.713 793.729 477.526 794.587 472.349C795.373 467.61 796.158 462.835 796.021 458.041C795.893 453.722 795.026 449.458 794.469 445.167C793.209 435.461 793.556 425.545 795.491 415.948C793.729 416.816 791.967 417.683 790.205 418.56C795.628 408.352 793.702 395.998 795.044 384.52C795.574 379.964 796.642 375.49 797.792 371.052C798.568 368.048 799.39 365.054 800.258 362.077L795.884 434.502L797.464 458.06C798.267 470.021 797.802 482.037 796.076 493.898L790.871 529.699C790.871 529.699 790.332 530.083 789.401 530.594C789.392 530.466 789.374 530.339 789.365 530.211C788.653 522.815 789.392 515.273 791.529 508.151C790.159 508.699 788.99 509.676 788.205 510.89Z" fill="white"/>
</g>
<path d="M679.878 168.258C679.741 166.368 679.613 164.478 679.476 162.597C679.421 161.775 679.358 160.962 679.312 160.141C679.029 155.347 679.065 150.526 679.412 145.741C679.431 145.824 679.449 145.915 679.449 146.006L680.636 167.29C680.453 167.655 680.216 167.993 679.878 168.258Z" fill="#D3867A"/>
<path d="M685.11 171.518C684.306 173.983 682.544 176.019 680.216 177.17L676.28 179.124C677.148 177.316 678.508 175.736 680.188 174.631C681.047 174.065 681.996 173.609 682.736 172.896C683.448 172.212 683.923 171.335 684.398 170.477C685.256 168.906 686.123 167.308 686.47 165.555C686.607 164.852 686.699 164.085 686.835 163.336H687.319C687.557 163.336 687.721 163.565 687.648 163.793L685.11 171.518Z" fill="#D3867A"/>
<path d="M779.769 160.479C780.079 163.428 779.76 166.468 779.175 169.363C778.6 172.266 777.641 175.161 776.171 177.745C775.331 179.215 774.445 180.648 773.432 182.009C773.368 182.091 773.231 182.018 773.295 181.927C774.957 179.471 776.217 176.795 777.23 174.01C778.244 171.235 778.956 168.349 779.248 165.409C779.413 163.766 779.431 162.122 779.422 160.479C779.422 160.25 779.741 160.259 779.769 160.479Z" fill="#414042"/>
<path d="M782.343 168.459C781.832 171.728 780.827 174.896 779.521 177.928C778.216 180.95 776.554 183.817 774.582 186.447C774.034 187.177 773.459 187.88 772.856 188.565C772.244 189.268 771.623 189.98 770.884 190.555C770.756 190.656 770.601 190.501 770.701 190.373C771.212 189.734 771.788 189.158 772.326 188.556C772.865 187.944 773.386 187.323 773.888 186.684C774.92 185.397 775.878 184.045 776.737 182.639C778.444 179.854 779.859 176.841 780.791 173.709C781.311 171.965 781.74 170.176 782.069 168.377C782.106 168.203 782.37 168.286 782.343 168.459Z" fill="#414042"/>
<path d="M743.793 139.131C742.332 140.665 741.2 142.491 740.57 144.518C739.94 146.554 739.858 148.7 740.204 150.791C740.214 150.846 740.131 150.873 740.113 150.818C739.045 146.719 740.506 141.843 743.674 139.021C743.756 138.948 743.866 139.058 743.793 139.131Z" fill="#414042"/>
<path d="M746.286 141.605C745.291 142.801 744.46 144.107 743.948 145.586C743.446 147.047 743.227 148.59 743.264 150.133C743.337 153.411 744.615 156.525 746.414 159.237C747.482 160.844 748.769 162.268 749.966 163.766C750.075 163.903 749.911 164.085 749.765 163.967C748.441 162.816 747.327 161.437 746.332 159.995C745.336 158.561 744.496 157.036 743.866 155.402C742.707 152.38 742.433 149.001 743.41 145.897C743.93 144.235 744.816 142.61 746.167 141.487C746.249 141.432 746.35 141.532 746.286 141.605Z" fill="#414042"/>
<path d="M746.578 137.533C744.14 137.232 741.711 138.081 739.876 139.67C737.913 141.377 736.735 143.733 736.48 146.317C736.206 149.093 736.89 151.914 738.178 154.361C739.438 156.744 741.218 158.79 742.999 160.789C743.985 161.894 744.971 162.999 745.893 164.158C746.807 165.3 747.811 166.523 748.258 167.939C748.331 168.185 747.984 168.413 747.811 168.194C746.943 167.117 746.259 165.912 745.4 164.816C744.533 163.711 743.602 162.67 742.67 161.62C740.826 159.538 738.936 157.429 737.612 154.973C735.028 150.17 734.672 143.505 738.991 139.551C741.027 137.688 743.857 136.574 746.615 137.186C746.806 137.25 746.77 137.56 746.578 137.533Z" fill="#231F20"/>
<path d="M778.38 155.429C778.691 153.366 778.243 151.165 776.892 149.54C775.294 147.622 772.792 147.166 770.418 147.029C767.661 146.874 764.903 147.038 762.136 146.956C759.58 146.874 757.06 146.518 754.658 145.623C753.407 145.157 752.211 144.573 751.07 143.879C749.938 143.185 748.769 142.39 747.92 141.359C747.765 141.176 747.966 140.829 748.203 140.993C749.216 141.697 750.157 142.5 751.207 143.157C752.266 143.824 753.389 144.399 754.549 144.856C757.042 145.833 759.68 146.244 762.356 146.362C765.168 146.49 767.989 146.353 770.802 146.591C773.112 146.791 775.449 147.358 777.084 149.12C777.86 149.96 778.435 150.982 778.745 152.078C778.91 152.635 779.001 153.22 779.01 153.804C779.019 154.397 778.891 154.954 778.7 155.511C778.636 155.73 778.353 155.639 778.38 155.429Z" fill="#231F20"/>
<path d="M782.498 176.74C783.393 173.024 784.763 169.418 785.374 165.637C785.676 163.775 785.776 161.876 785.493 160.004C785.247 158.415 784.726 156.762 783.557 155.603C782.964 155.009 782.197 154.598 781.366 154.434C780.471 154.261 779.741 154.489 778.919 154.818C778.718 154.9 778.545 154.589 778.709 154.452C779.832 153.466 781.75 153.831 782.918 154.534C784.324 155.384 785.155 156.927 785.575 158.47C786.607 162.259 785.849 166.35 784.872 170.066C784.27 172.339 783.594 174.604 782.818 176.823C782.736 177.024 782.443 176.951 782.498 176.74Z" fill="#231F20"/>
<path d="M622.177 478.53H618.278C591.808 478.53 570.141 456.872 570.141 430.393V426.494C570.141 400.024 591.799 378.356 618.278 378.356H622.177C648.647 378.356 670.314 400.015 670.314 426.494V430.393C670.305 456.872 648.647 478.53 622.177 478.53Z" fill="#2498D6"/>
<g filter="url(#filter0_d_148_3516)">
<path d="M550.337 217.842H268.779C256.193 217.842 245.984 207.588 245.984 194.935V158.406C245.984 145.759 256.193 135.5 268.779 135.5H527.542C540.134 135.5 550.337 145.759 550.337 158.406V217.842Z" fill="white"/>
</g>
<path d="M533.457 159.391H341.876V169.673H533.457V159.391Z" fill="#B2E4F1"/>
<path d="M441.221 181.767H341.876V192.048H441.221V181.767Z" fill="#B2E4F1"/>
<g filter="url(#filter1_d_148_3516)">
<path d="M550.337 455.487H268.779C256.193 455.487 245.984 445.233 245.984 432.58V396.052C245.984 383.404 256.193 373.145 268.779 373.145H527.542C540.134 373.145 550.337 383.404 550.337 396.052V455.487Z" fill="white"/>
</g>
<path d="M533.457 397.036H341.876V407.318H533.457V397.036Z" fill="#B2E4F1"/>
<path d="M441.221 419.412H341.876V429.693H441.221V419.412Z" fill="#B2E4F1"/>
<path d="M278.201 150.092H324.251C327.076 150.092 329.367 152.383 329.367 155.209V196.142C329.367 198.968 327.076 201.259 324.251 201.259H278.201C275.375 201.259 273.084 198.968 273.084 196.142V155.209C273.084 152.383 275.375 150.092 278.201 150.092Z" fill="#F0EAF9"/>
<path d="M275.642 160.326H326.809C328.222 160.326 329.367 161.471 329.367 162.884V162.884C329.367 164.297 328.222 165.442 326.809 165.442H275.642C274.229 165.442 273.084 164.297 273.084 162.884V162.884C273.084 161.471 274.229 160.326 275.642 160.326Z" fill="#E1D5F3"/>
<path d="M278.201 150.092H324.251C327.077 150.092 329.368 152.383 329.368 155.209V162.884H273.084V155.209C273.084 152.383 275.375 150.092 278.201 150.092Z" fill="#2498D6"/>
<path d="M278.201 150.092H324.252C325.665 150.092 326.81 151.237 326.81 152.65V152.65C326.81 154.063 325.665 155.209 324.252 155.209H278.201C276.788 155.209 275.643 154.063 275.643 152.65V152.65C275.643 151.237 276.788 150.092 278.201 150.092Z" fill="#2086BC"/>
<path d="M276.922 160.326H325.531C326.237 160.326 326.81 160.898 326.81 161.605C326.81 162.311 326.237 162.884 325.531 162.884H276.922C276.215 162.884 275.643 162.311 275.643 161.605C275.643 160.898 276.215 160.326 276.922 160.326Z" fill="#2086BC"/>
<path d="M328.089 168C327.383 168 326.81 168.573 326.81 169.279C326.81 169.279 326.81 169.279 326.81 169.279V196.142C326.81 197.555 325.664 198.7 324.251 198.7H310.181C309.474 198.7 308.901 199.273 308.901 199.98C308.901 200.686 309.474 201.259 310.181 201.259H324.251C327.077 201.259 329.368 198.968 329.368 196.142V169.279C329.368 168.573 328.795 168 328.089 168Z" fill="#A8D9F3"/>
<path d="M274.363 173.117C275.07 173.117 275.642 173.689 275.642 174.396V194.863C275.642 195.569 275.07 196.142 274.363 196.142C273.657 196.142 273.084 195.569 273.084 194.863V174.396C273.084 173.689 273.657 173.117 274.363 173.117Z" fill="#C1E9FE"/>
<path d="M279.48 157.767C280.187 157.767 280.76 157.195 280.76 156.488C280.76 155.782 280.187 155.209 279.48 155.209C278.774 155.209 278.201 155.782 278.201 156.488C278.201 157.195 278.774 157.767 279.48 157.767Z" fill="#F7B236"/>
<path d="M284.597 157.767C285.303 157.767 285.876 157.195 285.876 156.488C285.876 155.782 285.303 155.209 284.597 155.209C283.89 155.209 283.317 155.782 283.317 156.488C283.317 157.195 283.89 157.767 284.597 157.767Z" fill="#6CC1EE"/>
<path d="M289.714 157.767C290.42 157.767 290.993 157.195 290.993 156.488C290.993 155.782 290.42 155.209 289.714 155.209C289.007 155.209 288.435 155.782 288.435 156.488C288.435 157.195 289.007 157.767 289.714 157.767Z" fill="#D80E70"/>
<path d="M321.693 185.909H296.109C294.696 185.909 293.551 184.763 293.551 183.35V170.559C293.551 169.146 294.696 168.001 296.109 168.001H321.693C323.106 168.001 324.251 169.146 324.251 170.559V183.35C324.251 184.763 323.106 185.909 321.693 185.909Z" fill="#6CC1EE"/>
<path d="M285.876 178.234H280.759C279.347 178.234 278.201 177.088 278.201 175.675V170.559C278.201 169.146 279.347 168.001 280.759 168.001H285.876C287.289 168.001 288.434 169.146 288.434 170.559V175.675C288.434 177.088 287.289 178.234 285.876 178.234Z" fill="#6CC1EE"/>
<path d="M285.876 196.142H280.759C279.347 196.142 278.201 194.996 278.201 193.583V188.467C278.201 187.054 279.347 185.909 280.759 185.909H285.876C287.289 185.909 288.434 187.054 288.434 188.467V193.583C288.434 194.996 287.289 196.142 285.876 196.142Z" fill="#6CC1EE"/>
<path d="M294.83 188.467H302.505C303.211 188.467 303.784 189.04 303.784 189.746C303.784 190.452 303.211 191.025 302.505 191.025H294.83C294.124 191.025 293.551 190.452 293.551 189.746C293.551 189.04 294.124 188.467 294.83 188.467Z" fill="#6CC1EE"/>
<path d="M320.414 188.467H322.972C323.679 188.467 324.252 189.04 324.252 189.746C324.252 190.452 323.679 191.025 322.972 191.025H320.414C319.708 191.025 319.135 190.452 319.135 189.746C319.135 189.04 319.708 188.467 320.414 188.467Z" fill="#6CC1EE"/>
<path d="M307.623 188.467H315.298C316.004 188.467 316.577 189.04 316.577 189.746C316.577 190.452 316.004 191.025 315.298 191.025H307.623C306.916 191.025 306.344 190.452 306.344 189.746C306.344 189.04 306.916 188.467 307.623 188.467Z" fill="#6CC1EE"/>
<path d="M294.83 193.584H305.064C305.77 193.584 306.343 194.156 306.343 194.863C306.343 195.569 305.77 196.142 305.064 196.142H294.83C294.124 196.142 293.551 195.569 293.551 194.863C293.551 194.156 294.124 193.584 294.83 193.584Z" fill="#6CC1EE"/>
<path d="M310.181 193.584H312.739C313.445 193.584 314.018 194.156 314.018 194.863C314.018 195.569 313.445 196.142 312.739 196.142H310.181C309.474 196.142 308.901 195.569 308.901 194.863C308.901 194.156 309.474 193.584 310.181 193.584Z" fill="#6CC1EE"/>
<path d="M287.155 183.351H279.48C278.774 183.351 278.201 182.778 278.201 182.072C278.201 181.365 278.774 180.792 279.48 180.792H287.155C287.861 180.792 288.434 181.365 288.434 182.072C288.434 182.778 287.861 183.351 287.155 183.351Z" fill="#6CC1EE"/>
<path d="M301.226 188.467H298.668C291.603 188.467 285.876 194.194 285.876 201.259C285.876 201.259 285.876 201.259 285.876 201.259V201.327C285.885 202.724 284.651 203.817 283.254 203.817H282.038C281.332 203.817 280.759 204.39 280.759 205.096C280.759 205.803 281.332 206.376 282.038 206.376H290.992C298.057 206.376 303.784 200.648 303.784 193.584V188.467H301.226Z" fill="#F7B236"/>
<path d="M303.784 193.584V188.467H301.226C301.226 195.532 295.499 201.259 288.434 201.259H285.876V201.327C285.885 202.724 284.651 203.817 283.254 203.817H282.038C281.332 203.817 280.759 204.39 280.759 205.096C280.759 205.803 281.332 206.376 282.038 206.376H290.992C298.057 206.375 303.784 200.648 303.784 193.584Z" fill="#F58B04"/>
<path d="M328.51 163.741C327.726 162.957 326.567 162.683 325.515 163.034C316.498 166.22 309.069 172.78 304.793 181.334L303.784 183.351V188.467H308.901L310.918 187.459C319.471 183.182 326.031 175.753 329.217 166.737C329.568 165.685 329.294 164.525 328.51 163.741Z" fill="#2394CF"/>
<path d="M318.83 170.864C317.831 169.865 314.867 171.21 312.209 173.868C309.55 176.526 308.206 179.491 309.205 180.49C310.204 181.489 313.168 180.144 315.827 177.486C318.485 174.828 319.829 171.863 318.83 170.864Z" fill="#1A77A7"/>
<path d="M325.515 163.034C325.072 163.19 324.652 163.392 324.217 163.565C323.883 175.035 315.183 184.524 303.784 185.848V188.467H308.901L310.918 187.459C319.471 183.182 326.031 175.753 329.217 166.736C329.729 165.203 328.9 163.545 327.366 163.034C326.765 162.834 326.116 162.834 325.515 163.034Z" fill="#1C709D"/>
<path d="M301.226 188.467L303.784 191.025L308.901 188.467L303.784 183.35L301.226 188.467Z" fill="#2498D6"/>
<path d="M302.608 189.85L303.784 191.025L308.9 188.467L306.446 186.012C305.386 184.953 303.668 184.953 302.608 186.012C302.402 186.219 302.23 186.457 302.1 186.718C301.578 187.762 301.782 189.024 302.608 189.85Z" fill="#1C709D"/>
<path d="M295.948 191.304C295.169 190.526 292.927 191.506 290.94 193.493C288.952 195.481 287.972 197.723 288.75 198.501C289.528 199.28 291.77 198.299 293.758 196.312C295.746 194.324 296.726 192.082 295.948 191.304Z" fill="#FBDA9E"/>
<g opacity="0.2">
<path d="M548.747 62.6625H513.932C509.277 62.6625 505.518 58.9094 505.518 54.2619C505.518 49.6144 509.277 45.8613 513.932 45.8613H548.747C553.401 45.8613 557.16 49.6144 557.16 54.2619C557.16 58.8919 553.384 62.6625 548.747 62.6625Z" fill="#06D2FF"/>
<path d="M524.242 54.2776C524.242 55.4701 523.294 56.4347 522.099 56.4347C520.905 56.4347 519.938 55.4877 519.938 54.2951C519.938 53.1025 520.887 52.1379 522.082 52.1379C523.276 52.1379 524.242 53.085 524.242 54.2776Z" fill="white"/>
<path d="M533.481 54.2443C533.481 55.4369 532.533 56.4015 531.338 56.4015C530.144 56.4015 529.178 55.4369 529.178 54.2619C529.178 53.0693 530.126 52.1047 531.321 52.1047C532.515 52.1047 533.481 53.0693 533.481 54.2443Z" fill="white"/>
<path d="M542.722 54.2268C542.722 55.4193 541.773 56.3839 540.579 56.3839C539.384 56.3839 538.418 55.4193 538.418 54.2443C538.418 53.0517 539.366 52.0871 540.561 52.0871C541.755 52.0696 542.722 53.0342 542.722 54.2268Z" fill="white"/>
</g>
<path d="M646.177 430.815L633.034 417.672C632.625 417.264 631.902 417.264 631.494 417.672L628.644 420.522C628.219 420.947 628.219 421.637 628.644 422.062L638.168 431.585L628.645 441.108C628.219 441.534 628.219 442.224 628.645 442.649L631.494 445.499C631.699 445.703 631.976 445.818 632.265 445.818C632.553 445.818 632.831 445.703 633.035 445.499L646.177 432.357C646.602 431.931 646.602 431.24 646.177 430.815Z" fill="white"/>
<path d="M612.851 441.108L603.329 431.586L612.852 422.064C613.057 421.859 613.172 421.582 613.172 421.293C613.172 421.004 613.057 420.727 612.852 420.523L610.003 417.673C609.799 417.469 609.521 417.354 609.233 417.354C608.944 417.354 608.667 417.469 608.462 417.673L595.319 430.815C594.894 431.24 594.894 431.93 595.319 432.356L608.462 445.498C608.666 445.702 608.943 445.818 609.232 445.818C609.521 445.818 609.798 445.702 610.003 445.498L612.852 442.649C613.277 442.224 613.277 441.534 612.851 441.108Z" fill="white"/>
<path d="M628.221 413.251C628.083 412.997 627.849 412.809 627.573 412.727L625.263 412.045C624.686 411.874 624.079 412.205 623.909 412.782L613.186 449.096C613.104 449.373 613.136 449.671 613.274 449.924C613.412 450.179 613.645 450.367 613.922 450.449L616.232 451.131C616.335 451.161 616.439 451.176 616.541 451.176C617.011 451.176 617.446 450.869 617.586 450.394L628.309 414.08C628.39 413.802 628.359 413.504 628.221 413.251Z" fill="white"/>
<defs>
<filter id="filter0_d_148_3516" x="233.984" y="131.5" width="328.353" height="106.342" filterUnits="userSpaceOnUse" color-interpolation-filters="sRGB">
<feFlood flood-opacity="0" result="BackgroundImageFix"/>
<feColorMatrix in="SourceAlpha" type="matrix" values="0 0 0 0 0 0 0 0 0 0 0 0 0 0 0 0 0 0 127 0" result="hardAlpha"/>
<feOffset dy="8"/>
<feGaussianBlur stdDeviation="6"/>
<feColorMatrix type="matrix" values="0 0 0 0 0.00220484 0 0 0 0 0.421204 0 0 0 0 0.529167 0 0 0 0.08 0"/>
<feBlend mode="normal" in2="BackgroundImageFix" result="effect1_dropShadow_148_3516"/>
<feBlend mode="normal" in="SourceGraphic" in2="effect1_dropShadow_148_3516" result="shape"/>
</filter>
<filter id="filter1_d_148_3516" x="233.984" y="369.145" width="328.353" height="106.342" filterUnits="userSpaceOnUse" color-interpolation-filters="sRGB">
<feFlood flood-opacity="0" result="BackgroundImageFix"/>
<feColorMatrix in="SourceAlpha" type="matrix" values="0 0 0 0 0 0 0 0 0 0 0 0 0 0 0 0 0 0 127 0" result="hardAlpha"/>
<feOffset dy="8"/>
<feGaussianBlur stdDeviation="6"/>
<feColorMatrix type="matrix" values="0 0 0 0 0.00220484 0 0 0 0 0.421204 0 0 0 0 0.529167 0 0 0 0.08 0"/>
<feBlend mode="normal" in2="BackgroundImageFix" result="effect1_dropShadow_148_3516"/>
<feBlend mode="normal" in="SourceGraphic" in2="effect1_dropShadow_148_3516" result="shape"/>
</filter>
<linearGradient id="paint0_linear_148_3516" x1="177.581" y1="502.096" x2="231.493" y2="502.096" gradientUnits="userSpaceOnUse">
<stop stop-color="#7AE582"/>
<stop offset="0.1856" stop-color="#74E083"/>
<stop offset="0.4421" stop-color="#62D285"/>
<stop offset="0.7384" stop-color="#45BA8A"/>
<stop offset="1" stop-color="#25A18E"/>
</linearGradient>
<linearGradient id="paint1_linear_148_3516" x1="178.117" y1="406.254" x2="203.182" y2="406.254" gradientUnits="userSpaceOnUse">
<stop offset="0.0729" stop-color="#F7A66A"/>
<stop offset="1" stop-color="#FCD991"/>
</linearGradient>
<linearGradient id="paint2_linear_148_3516" x1="150.1" y1="311.84" x2="202.317" y2="311.84" gradientUnits="userSpaceOnUse">
<stop offset="0.0729" stop-color="#F7A66A"/>
<stop offset="1" stop-color="#FCD991"/>
</linearGradient>
<linearGradient id="paint3_linear_148_3516" x1="160.917" y1="350.162" x2="202.997" y2="350.162" gradientUnits="userSpaceOnUse">
<stop offset="0.0729" stop-color="#F7A66A"/>
<stop offset="1" stop-color="#FCD991"/>
</linearGradient>
<linearGradient id="paint4_linear_148_3516" x1="176.321" y1="444.446" x2="202.997" y2="444.446" gradientUnits="userSpaceOnUse">
<stop offset="0.0729" stop-color="#F7A66A"/>
<stop offset="1" stop-color="#FCD991"/>
</linearGradient>
<linearGradient id="paint5_linear_148_3516" x1="132.719" y1="311.539" x2="184.334" y2="311.539" gradientUnits="userSpaceOnUse">
<stop offset="0.0729" stop-color="#F7A66A"/>
<stop offset="1" stop-color="#FCD991"/>
</linearGradient>
<linearGradient id="paint6_linear_148_3516" x1="139.075" y1="405.075" x2="167.358" y2="405.075" gradientUnits="userSpaceOnUse">
<stop offset="0.0729" stop-color="#F7A66A"/>
<stop offset="1" stop-color="#FCD991"/>
</linearGradient>
<linearGradient id="paint7_linear_148_3516" x1="133.346" y1="360.014" x2="184.237" y2="360.014" gradientUnits="userSpaceOnUse">
<stop offset="0.0729" stop-color="#F7A66A"/>
<stop offset="1" stop-color="#FCD991"/>
</linearGradient>
<linearGradient id="paint8_linear_148_3516" x1="135.144" y1="445.732" x2="167.305" y2="445.732" gradientUnits="userSpaceOnUse">
<stop offset="0.0729" stop-color="#F7A66A"/>
<stop offset="1" stop-color="#FCD991"/>
</linearGradient>
<linearGradient id="paint9_linear_148_3516" x1="126.515" y1="245.656" x2="200.377" y2="245.656" gradientUnits="userSpaceOnUse">
<stop stop-color="#7AE582"/>
<stop offset="0.1856" stop-color="#74E083"/>
<stop offset="0.4421" stop-color="#62D285"/>
<stop offset="0.7384" stop-color="#45BA8A"/>
<stop offset="1" stop-color="#25A18E"/>
</linearGradient>
<linearGradient id="paint10_linear_148_3516" x1="187.755" y1="264.543" x2="208.937" y2="245.877" gradientUnits="userSpaceOnUse">
<stop stop-color="#25A18E"/>
<stop offset="0.2616" stop-color="#45BA8A"/>
<stop offset="0.5579" stop-color="#62D285"/>
<stop offset="0.8144" stop-color="#74E083"/>
<stop offset="1" stop-color="#7AE582"/>
</linearGradient>
<linearGradient id="paint11_linear_148_3516" x1="100.422" y1="269.33" x2="177.901" y2="201.055" gradientUnits="userSpaceOnUse">
<stop stop-color="#25A18E"/>
<stop offset="0.2616" stop-color="#45BA8A"/>
<stop offset="0.5579" stop-color="#62D285"/>
<stop offset="0.8144" stop-color="#74E083"/>
<stop offset="1" stop-color="#7AE582"/>
</linearGradient>
<linearGradient id="paint12_linear_148_3516" x1="138.47" y1="502.922" x2="170.32" y2="502.922" gradientUnits="userSpaceOnUse">
<stop stop-color="#7AE582"/>
<stop offset="0.1856" stop-color="#74E083"/>
<stop offset="0.4421" stop-color="#62D285"/>
<stop offset="0.7384" stop-color="#45BA8A"/>
<stop offset="1" stop-color="#25A18E"/>
</linearGradient>
<linearGradient id="paint13_linear_148_3516" x1="724.855" y1="537.641" x2="749.434" y2="537.641" gradientUnits="userSpaceOnUse">
<stop stop-color="#004E64"/>
<stop offset="0.04" stop-color="#00556D"/>
<stop offset="0.2285" stop-color="#007290"/>
<stop offset="0.4193" stop-color="#0088AC"/>
<stop offset="0.6108" stop-color="#0098BF"/>
<stop offset="0.8037" stop-color="#00A2CB"/>
<stop offset="1" stop-color="#00A5CF"/>
</linearGradient>
<linearGradient id="paint14_linear_148_3516" x1="768.896" y1="537.641" x2="793.476" y2="537.641" gradientUnits="userSpaceOnUse">
<stop stop-color="#004E64"/>
<stop offset="0.04" stop-color="#00556D"/>
<stop offset="0.2285" stop-color="#007290"/>
<stop offset="0.4193" stop-color="#0088AC"/>
<stop offset="0.6108" stop-color="#0098BF"/>
<stop offset="0.8037" stop-color="#00A2CB"/>
<stop offset="1" stop-color="#00A5CF"/>
</linearGradient>
<linearGradient id="paint15_linear_148_3516" x1="842.293" y1="370.095" x2="706.172" y2="216.122" gradientUnits="userSpaceOnUse">
<stop stop-color="#004E64"/>
<stop offset="0.04" stop-color="#083D59"/>
<stop offset="0.2285" stop-color="#0F5D86"/>
<stop offset="0.4193" stop-color="#1D75A4"/>
<stop offset="0.6108" stop-color="#257FAF"/>
<stop offset="0.8037" stop-color="#2895CE"/>
<stop offset="1" stop-color="#2596D2"/>
</linearGradient>
</defs>
</svg>
