<svg width="35" height="35" viewBox="0 0 35 35" fill="none" xmlns="http://www.w3.org/2000/svg">
<path d="M33.9746 0H29.8047C29.2379 0 28.7793 0.458623 28.7793 1.02539V2.05078H20.3873C19.9626 0.859824 18.8351 0 17.5 0C16.1649 0 15.0374 0.859824 14.6127 2.05078H6.2207V1.02539C6.2207 0.458623 5.76208 0 5.19531 0H1.02539C0.458623 0 0 0.458623 0 1.02539V5.12695C0 5.69372 0.458623 6.15234 1.02539 6.15234H5.19531C5.76208 6.15234 6.2207 5.69372 6.2207 5.12695V4.08789H10.4319C6.87333 6.31101 4.52689 10.2156 4.24642 14.5889C3.01608 14.9916 2.11914 16.1369 2.11914 17.5C2.11914 19.1963 3.49904 20.5762 5.19531 20.5762C6.89158 20.5762 8.27148 19.1963 8.27148 17.5C8.27148 16.1916 7.447 15.0792 6.29316 14.6353C6.64303 9.75953 10.0451 5.65004 14.7775 4.47754C15.2893 5.46718 16.311 6.15234 17.5 6.15234C18.689 6.15234 19.7107 5.46718 20.2225 4.47754C24.9549 5.64997 28.357 9.75946 28.7068 14.6352C27.553 15.0792 26.7285 16.1916 26.7285 17.5C26.7285 19.1963 28.1084 20.5762 29.8047 20.5762C31.501 20.5762 32.8809 19.1963 32.8809 17.5C32.8809 16.1369 31.9839 14.9916 30.7536 14.5889C30.4731 10.2156 28.1267 6.32468 24.5681 4.10156H28.7793V5.12695C28.7793 5.69372 29.2379 6.15234 29.8047 6.15234H33.9746C34.5414 6.15234 35 5.69372 35 5.12695V1.02539C35 0.458623 34.5414 0 33.9746 0Z" fill="white"/>
<path d="M24.4761 33.7282C23.9397 32.0869 22.3945 30.8301 20.5762 30.8301H14.4238C12.6055 30.8301 11.0603 32.0869 10.5239 33.7282C10.3171 34.361 10.8555 35 11.5213 35H23.4787C24.1445 35 24.6829 34.361 24.4761 33.7282Z" fill="white"/>
<path d="M26.5563 21.0328L18.5254 8.98645V18.7143C19.7164 19.139 20.5762 20.2665 20.5762 21.6016C20.5762 23.2978 19.1963 24.6777 17.5 24.6777C15.8037 24.6777 14.4238 23.2978 14.4238 21.6016C14.4238 20.2665 15.2837 19.139 16.4746 18.7143V8.98645L8.44376 21.0328C8.17237 21.4393 8.22645 21.9811 8.57193 22.3266C10.4543 24.209 11.6576 26.634 12.122 29.2353C12.8343 28.9464 13.609 28.7793 14.4238 28.7793H20.5762C21.391 28.7793 22.1657 28.9463 22.878 29.2352C23.3424 26.6338 24.5457 24.209 26.4281 22.3266C26.7736 21.9811 26.8276 21.4393 26.5563 21.0328Z" fill="white"/>
<path d="M17.5 20.5762C16.9343 20.5762 16.4746 21.0358 16.4746 21.6016C16.4746 22.1673 16.9343 22.627 17.5 22.627C18.0657 22.627 18.5254 22.1673 18.5254 21.6016C18.5254 21.0358 18.0657 20.5762 17.5 20.5762Z" fill="white"/>
</svg>
