<svg width="39" height="38" viewBox="0 0 39 38" fill="none" xmlns="http://www.w3.org/2000/svg">
<path d="M26.9516 13.8011C27.4139 17.2555 27.4139 20.6849 26.9516 24.1479C21.9964 24.1479 17.0402 24.1479 12.0503 24.1479C11.5825 20.712 11.5869 17.2739 12.047 13.8011C17.0033 13.8011 21.9595 13.8011 26.9516 13.8011Z" fill="white"/>
<path d="M12.4976 11.1418C13.2127 8.11368 14.1363 5.21354 16.1049 2.76567C16.6431 2.0965 17.2726 1.52493 18.0442 1.12472C19.0643 0.596539 20.0736 0.631245 21.0676 1.18221C22.0628 1.73317 22.8029 2.55635 23.4389 3.47932C24.8898 5.58338 25.7168 7.95099 26.3234 10.4075C26.382 10.6429 26.4309 10.8793 26.4905 11.1407C21.8316 11.1418 17.1955 11.1418 12.4976 11.1418Z" fill="white"/>
<path d="M12.501 26.8051C17.1718 26.8051 21.809 26.8051 26.507 26.8051C26.3355 27.471 26.1825 28.1229 25.998 28.7649C25.4391 30.7117 24.737 32.6065 23.5573 34.2659C23.0071 35.0402 22.356 35.7788 21.6256 36.3797C20.2636 37.5 18.8311 37.4924 17.4247 36.4241C16.8495 35.9871 16.3188 35.4567 15.8804 34.883C14.0561 32.4991 13.1727 29.7096 12.501 26.8051Z" fill="white"/>
<path d="M29.5782 24.1544C30.0036 20.6979 30.0069 17.2555 29.5771 13.787C29.7193 13.7794 29.8387 13.7675 29.957 13.7675C32.6093 13.7664 35.2605 13.7708 37.9128 13.761C38.1841 13.7599 38.3068 13.8163 38.3806 14.1081C39.2075 17.3661 39.2053 20.6176 38.3686 23.8724C38.3133 24.0883 38.2471 24.188 37.9996 24.187C35.267 24.1783 32.5333 24.1815 29.7996 24.1794C29.7367 24.1815 29.6716 24.1663 29.5782 24.1544Z" fill="white"/>
<path d="M9.34054 13.7892C9.26023 15.5408 9.11807 17.2707 9.11807 19.0005C9.11807 20.7152 9.26132 22.4299 9.34271 24.1674C9.27326 24.1707 9.15497 24.1815 9.03559 24.1815C6.38328 24.1826 3.73098 24.1772 1.07975 24.1891C0.798677 24.1902 0.689069 24.1154 0.617443 23.8334C-0.204078 20.5894 -0.208419 17.3509 0.623955 14.1091C0.680387 13.8901 0.729222 13.7599 1.00813 13.761C3.72772 13.7729 6.44731 13.7675 9.16691 13.7697C9.24504 13.7686 9.32318 13.787 9.34054 13.7892Z" fill="white"/>
<path d="M23.9253 0C30.1382 1.58347 34.5953 5.28727 37.3681 11.1374C34.5975 11.1374 31.9007 11.1374 29.1648 11.1374C28.747 9.10712 28.1892 7.105 27.3492 5.19291C26.5038 3.27214 25.4457 1.4902 23.9253 0Z" fill="white"/>
<path d="M15.1162 0.00543213C12.0027 3.1073 10.7373 7.04102 9.82028 11.1418C7.10937 11.1418 4.40823 11.1418 1.70166 11.1418C2.96813 6.55731 10.3206 0.446851 15.1162 0.00543213Z" fill="white"/>
<path d="M29.1808 26.8008C31.9112 26.8008 34.6004 26.8008 37.345 26.8008C36.1588 29.4873 34.4832 31.7648 32.3041 33.6683C29.8677 35.7951 27.0732 37.2289 23.8306 38C26.9875 34.8591 28.2594 30.9221 29.1808 26.8008Z" fill="white"/>
<path d="M9.82262 26.8008C10.7418 30.9243 12.0115 34.8537 15.1717 37.9957C12.0984 37.269 9.43194 35.9426 7.07807 33.9893C4.71769 32.0306 2.9162 29.6456 1.65625 26.8008C4.40514 26.8008 7.09761 26.8008 9.82262 26.8008Z" fill="white"/>
</svg>
