<svg width="30" height="30" viewBox="0 0 30 30" fill="none" xmlns="http://www.w3.org/2000/svg">
<path d="M8.9974 5.26828L9.61878 4.64689C10.0237 4.24201 9.93818 3.56496 9.44968 3.27188L4.74199 0.447142C3.50601 -0.292718 1.9336 -0.0995938 0.91823 0.918352C-0.0997158 1.93548 -0.29284 3.50789 0.44702 4.74211L3.2717 9.44904C3.56513 9.93812 4.24552 10.0229 4.64671 9.61814L5.26898 8.99676L10.0241 13.7446L13.7483 10.02L8.9974 5.26828Z" fill="white"/>
<path d="M29.4008 3.4999C29.1426 2.9582 28.4182 2.82332 27.9863 3.25697L25.7126 5.53063C25.3796 5.86368 24.8028 5.86368 24.4698 5.53063C24.1273 5.18815 24.1273 4.63029 24.4698 4.28781L26.7434 2.01414C27.1711 1.58647 27.0483 0.860729 26.5005 0.599636C24.1513 -0.523017 21.3378 -0.0397956 19.4976 1.80209C17.8076 3.49123 17.2617 6.00178 18.0513 8.21879L8.21822 18.0515C6.00292 17.2619 3.49154 17.8078 1.80153 19.4978C-0.0395419 21.3389 -0.522763 24.1532 0.599069 26.5007C0.860806 27.0498 1.58701 27.1702 2.01358 26.7437L4.28724 24.47C4.63054 24.1284 5.18847 24.1275 5.53007 24.4709C5.87243 24.8115 5.87495 25.3661 5.53007 25.7128L3.2564 27.9865C2.82873 28.4142 2.9516 29.1399 3.49933 29.401C4.34296 29.8043 5.24677 30 6.14454 30C7.74443 30 9.32283 29.3777 10.5013 28.1984C12.1921 26.5093 12.7371 23.9987 11.9475 21.7817L21.7808 11.9491C23.9952 12.7379 26.5075 12.1928 28.1983 10.5028C30.0394 8.66175 30.5226 5.84739 29.4008 3.4999Z" fill="white"/>
<path d="M28.7025 22.568C25.7189 19.5954 24.0833 18.4144 20.5858 15.6945L15.6152 20.6655C18.0737 23.8214 19.5624 25.8569 22.3544 28.6499C23.2677 29.5631 24.4813 29.9892 25.6752 29.9892C26.5515 29.9892 27.4167 29.7811 28.1437 29.2585C29.2037 28.4946 29.8715 27.3178 29.9753 26.0312C30.0792 24.7429 29.6157 23.4812 28.7025 22.568ZM26.1709 26.1744C25.821 26.4932 25.2758 26.4626 24.9411 26.1279L21.4603 22.6472C21.1257 22.3125 21.0951 21.7673 21.4138 21.4173C21.7541 21.0439 22.3325 21.0337 22.6857 21.3869L26.2013 24.9025C26.5545 25.2558 26.5444 25.8342 26.1709 26.1744Z" fill="white"/>
</svg>
