<svg width="37" height="35" viewBox="0 0 37 35" fill="none" xmlns="http://www.w3.org/2000/svg">
<path d="M29.5644 20.0216C24.0116 20.2381 18.7543 21.682 14.0701 24.0751L8.0469 27.5531C6.45397 28.4716 4.41967 27.9203 3.50549 26.3356L0.444401 21.0351C-0.471737 19.4476 0.0743202 17.4099 1.66189 16.4937L6.65216 13.6122C6.94112 13.4453 7.31067 13.5443 7.47759 13.8333L11.3988 20.625C11.5686 20.9191 11.9482 21.0166 12.2395 20.837C12.5213 20.6633 12.5983 20.2858 12.4327 19.9991L8.48322 13.1583C8.32635 12.8866 8.40339 12.5397 8.66131 12.3609C12.7811 9.50464 16.2665 5.86676 18.9431 1.62405C19.9571 0.0154122 22.32 0.0584622 23.2731 1.70864L31.6558 16.2294C32.6084 17.876 31.4678 19.9476 29.5644 20.0216ZM30.6401 9.90841C30.9504 8.13218 29.9094 6.35066 28.2267 5.74085C27.6978 5.54917 27.218 6.12476 27.4991 6.61198C28.1686 7.77184 28.8405 8.9357 29.5199 10.112C29.8037 10.6033 30.5424 10.4674 30.6401 9.90841ZM16.6924 31.2879L13.8251 26.3104C13.6585 26.0212 13.2885 25.922 12.9993 26.0888C11.4454 26.9854 11.3866 27.0202 9.31379 28.2167C9.02475 28.3836 8.92535 28.7533 9.09227 29.0424L11.9645 34.0166C12.3327 34.6536 12.9948 35 13.6691 35C14.3232 35 14.5733 34.7787 15.9734 33.9706C16.9115 33.429 17.234 32.2252 16.6924 31.2879ZM35.0517 5.31428C35.3407 5.14744 35.4398 4.77789 35.2729 4.48893C35.1061 4.20004 34.7367 4.10087 34.4475 4.26778L32.8842 5.1704C32.3492 5.47931 32.5729 6.29801 33.1869 6.29801C33.4018 6.29794 33.3587 6.29175 35.0517 5.31428ZM29.4958 2.18333L29.8771 0.760708C29.9635 0.438361 29.7722 0.107101 29.4499 0.020699C29.1274 -0.0655524 28.7962 0.125605 28.7098 0.447953L28.3286 1.87057C28.2259 2.25364 28.5146 2.63135 28.9126 2.63135C29.1793 2.63127 29.4235 2.45326 29.4958 2.18333ZM36.231 11.7659C36.3174 11.4436 36.126 11.1122 35.8037 11.0259L34.3811 10.6447C34.0588 10.5585 33.7274 10.7497 33.641 11.072C33.5546 11.3942 33.746 11.7256 34.0683 11.812C35.6242 12.2289 35.5388 12.2139 35.6477 12.2139C35.9145 12.2139 36.1586 12.0358 36.231 11.7659Z" fill="white"/>
</svg>
