<svg width="152" height="50" viewBox="0 0 152 50" fill="none" xmlns="http://www.w3.org/2000/svg">
<path d="M58.7634 22.3867C58.7023 23.2342 58.5114 24.0121 58.1908 24.7213C57.8701 25.4306 57.4272 26.0392 56.8621 26.546C56.2969 27.0539 55.6116 27.4503 54.8063 27.7353C54.0009 28.0225 53.0829 28.1639 52.0523 28.1639C50.9832 28.1639 50.0233 27.9796 49.1719 27.6089C48.3204 27.2392 47.5986 26.7067 47.0067 26.0135C46.4147 25.3192 45.96 24.4781 45.6437 23.4903C45.3262 22.5024 45.1686 21.3945 45.1686 20.1656V19.0673C45.1686 17.8395 45.3327 16.7294 45.6608 15.7373C45.989 14.7462 46.4533 13.903 47.0528 13.2087C47.6523 12.5155 48.3794 11.9808 49.2341 11.6069C50.0888 11.2329 51.0443 11.0465 52.0974 11.0465C53.1355 11.0465 54.0534 11.1933 54.8513 11.4869C55.6492 11.7804 56.3269 12.1887 56.8846 12.7115C57.4422 13.2344 57.8776 13.8558 58.1908 14.5769C58.5039 15.298 58.7023 16.0812 58.786 16.9287H55.35C55.3114 16.4327 55.2256 15.9944 55.0926 15.6119C54.9585 15.2316 54.7655 14.9101 54.5135 14.6508C54.2615 14.3916 53.9366 14.1955 53.5398 14.0616C53.143 13.9276 52.6615 13.8612 52.0963 13.8612C50.936 13.8612 50.0705 14.2833 49.5022 15.1255C48.9338 15.9677 48.6496 17.2748 48.6496 19.0448V20.1656C48.6496 21.0281 48.7129 21.7834 48.8383 22.4317C48.9638 23.0799 49.1622 23.621 49.4335 24.0571C49.7038 24.4921 50.0555 24.8178 50.4866 25.0353C50.9177 25.2528 51.4389 25.361 52.0502 25.361C52.5918 25.361 53.0593 25.2999 53.4529 25.1778C53.8465 25.0556 54.1746 24.8703 54.4374 24.6228C54.7012 24.3753 54.9049 24.0646 55.0497 23.6906C55.1945 23.3167 55.2867 22.8817 55.3242 22.3856H58.7634V22.3867Z" fill="#1685C0"/>
<path d="M67.1925 21.8373H64.4558V27.9359H61.0198V11.2761H67.2161C68.1781 11.2761 69.0403 11.3853 69.8049 11.6029C70.5685 11.8204 71.213 12.1407 71.7406 12.5639C72.2682 12.9872 72.6725 13.5122 72.9546 14.1368C73.2377 14.7625 73.3792 15.4868 73.3792 16.3108C73.3792 16.9204 73.3106 17.4679 73.1733 17.9522C73.0361 18.4365 72.8377 18.8672 72.5781 19.2455C72.3186 19.6226 72.0055 19.9526 71.6387 20.2355C71.272 20.5173 70.8602 20.7616 70.4022 20.9673L74.0098 27.7752V27.9349H70.3229L67.1925 21.8373ZM64.4558 19.0569H67.2268C67.6773 19.0569 68.0719 18.998 68.4119 18.879C68.7518 18.7601 69.0349 18.593 69.2601 18.3754C69.4853 18.1579 69.6548 17.8987 69.7695 17.5976C69.8843 17.2965 69.9411 16.959 69.9411 16.5851C69.9411 15.7997 69.718 15.1815 69.2708 14.7315C68.8237 14.2815 68.1384 14.0565 67.2151 14.0565H64.4547V19.0569H64.4558Z" fill="#1685C0"/>
<path d="M86.0207 20.7155H79.4244V25.178H87.1671V27.9359H75.9884V11.2761H87.1435V14.0565H79.4244V18.0272H86.0207V20.7155Z" fill="#1685C0"/>
<path d="M98.5957 24.5039H92.572L91.4267 27.9368H87.7741L93.9812 11.2769H97.1651L103.407 27.9368H99.7529L98.5957 24.5039ZM93.4997 21.7224H97.6681L95.5726 15.4866L93.4997 21.7224Z" fill="#1685C0"/>
<path d="M116.141 14.0565H111.033V27.9359H107.597V14.0565H102.558V11.2761H116.141V14.0565Z" fill="#1685C0"/>
<path d="M121.753 27.9359H118.318V11.2761H121.753V27.9359Z" fill="#1685C0"/>
<path d="M131.099 23.8055L134.878 11.2761H138.703L132.897 27.9359H129.312L123.527 11.2761H127.342L131.099 23.8055Z" fill="#1685C0"/>
<path d="M150.305 20.7155H143.708V25.178H151.451V27.9359H140.273V11.2761H151.428V14.0565H143.708V18.0272H150.305V20.7155Z" fill="#1685C0"/>
<path d="M49.6147 35.3706C49.6147 35.212 49.5901 35.0717 49.5386 34.9495C49.4882 34.8295 49.3981 34.717 49.2694 34.6163C49.1397 34.5145 48.9659 34.4192 48.7472 34.3313C48.5273 34.2424 48.2506 34.1513 47.9139 34.0581C47.5611 33.9616 47.2415 33.8524 46.9552 33.7281C46.6688 33.6059 46.4254 33.4645 46.2249 33.3038C46.0243 33.1431 45.8688 32.9609 45.7616 32.7552C45.6533 32.5495 45.5997 32.3148 45.5997 32.0502C45.5997 31.7866 45.6576 31.5413 45.7734 31.3152C45.8892 31.0902 46.0544 30.893 46.2656 30.727C46.478 30.5609 46.7332 30.4312 47.0302 30.338C47.3273 30.2448 47.6597 30.1977 48.0254 30.1977C48.4276 30.1977 48.7858 30.2555 49.0989 30.3702C49.4121 30.4848 49.6769 30.638 49.8903 30.8277C50.1038 31.0173 50.2678 31.237 50.3783 31.4855C50.4887 31.7341 50.5445 31.9913 50.5445 32.2559H49.5987C49.5987 32.0652 49.5665 31.8895 49.5032 31.7288C49.4399 31.567 49.3423 31.4266 49.2115 31.3077C49.0807 31.1898 48.9177 31.0987 48.7214 31.0323C48.5252 30.967 48.2935 30.9348 48.0254 30.9348C47.7734 30.9348 47.5547 30.9616 47.3681 31.0184C47.1825 31.0741 47.0281 31.1512 46.9069 31.2498C46.7857 31.3473 46.6957 31.463 46.6377 31.597C46.5798 31.7309 46.5498 31.8766 46.5498 32.0352C46.5498 32.1788 46.5809 32.3095 46.6453 32.4273C46.7096 32.5452 46.8083 32.6545 46.9423 32.7541C47.0764 32.8538 47.249 32.9459 47.4592 33.0295C47.6694 33.1131 47.9225 33.1934 48.2163 33.2727C48.6217 33.382 48.9713 33.502 49.2662 33.6338C49.56 33.7666 49.8035 33.9166 49.9944 34.0849C50.1853 34.252 50.3279 34.4406 50.4212 34.6484C50.5134 34.8563 50.5606 35.0931 50.5606 35.3577C50.5606 35.6342 50.5016 35.8849 50.3837 36.1088C50.2668 36.3328 50.0984 36.5245 49.8807 36.682C49.663 36.8406 49.4024 36.9638 49.0968 37.0485C48.7911 37.1342 48.4501 37.1771 48.0748 37.1771C47.8549 37.1771 47.6362 37.1567 47.4174 37.1181C47.1986 37.0795 46.9884 37.0206 46.7879 36.9435C46.5873 36.8663 46.4007 36.7699 46.2292 36.6542C46.0576 36.5385 45.9085 36.4056 45.7809 36.2524C45.6533 36.0992 45.5535 35.9288 45.4817 35.7392C45.4098 35.5485 45.3734 35.3406 45.3734 35.1134H46.3192C46.3192 35.347 46.3675 35.5463 46.464 35.7135C46.5605 35.8795 46.6892 36.0177 46.8512 36.127C47.0131 36.2363 47.1997 36.3156 47.4099 36.367C47.6201 36.4185 47.8421 36.4442 48.0748 36.4442C48.5713 36.4442 48.952 36.3478 49.2169 36.1538C49.4828 35.9652 49.6147 35.7027 49.6147 35.3706Z" fill="#156483"/>
<path d="M58.3141 33.9091C58.3141 34.4202 58.2465 34.8755 58.1114 35.2784C57.9763 35.6812 57.7832 36.0241 57.5355 36.307C57.2867 36.5909 56.9864 36.8063 56.6325 36.9552C56.2797 37.1052 55.8861 37.1791 55.4507 37.1791C55.0282 37.1791 54.6422 37.1052 54.2883 36.9552C53.9354 36.8052 53.632 36.5898 53.3767 36.307C53.1215 36.0241 52.9242 35.6812 52.7837 35.2784C52.6432 34.8755 52.5724 34.4191 52.5724 33.9091V33.4805C52.5724 32.9726 52.6421 32.5173 52.7837 32.1112C52.9242 31.7051 53.1204 31.3612 53.3714 31.0772C53.6234 30.7944 53.9258 30.578 54.2786 30.4269C54.6314 30.2758 55.0186 30.2008 55.44 30.2008C55.8743 30.2008 56.269 30.2758 56.624 30.4269C56.9789 30.579 57.2813 30.7955 57.5312 31.0772C57.7811 31.3612 57.9741 31.7051 58.1103 32.1112C58.2465 32.5173 58.313 32.9737 58.313 33.4805V33.9091H58.3141ZM57.3779 33.4709C57.3779 33.0669 57.3339 32.7091 57.2481 32.3973C57.1612 32.0865 57.0347 31.8251 56.8685 31.614C56.7022 31.403 56.4985 31.2422 56.2583 31.134C56.0181 31.0258 55.7457 30.9712 55.4422 30.9712C55.1515 30.9712 54.8867 31.0258 54.6475 31.134C54.4084 31.2422 54.2057 31.403 54.0373 31.614C53.869 31.8251 53.7392 32.0865 53.648 32.3973C53.5569 32.7091 53.5108 33.0669 53.5108 33.4709V33.9091C53.5108 34.3173 53.5569 34.6762 53.6502 34.9869C53.7435 35.2977 53.8754 35.5602 54.0448 35.7734C54.2153 35.9855 54.4191 36.1473 54.6582 36.2555C54.8963 36.3648 55.1612 36.4184 55.4529 36.4184C55.7596 36.4184 56.0331 36.3638 56.2722 36.2555C56.5103 36.1462 56.713 35.9855 56.877 35.7734C57.0422 35.5602 57.1677 35.2977 57.2524 34.9869C57.3382 34.6762 57.38 34.3173 57.38 33.9091V33.4709H57.3779Z" fill="#156483"/>
<path d="M64.7174 34.0869H61.7211V37.0869H60.7806V30.2929H65.2032V31.0301H61.7211V33.353H64.7174V34.0869Z" fill="#156483"/>
<path d="M72.4162 31.0311H70.1212V37.0869H69.185V31.0311H66.8954V30.2929H72.4162V31.0311Z" fill="#156483"/>
<path d="M82.6115 31.0311H80.3155V37.0869H79.3793V31.0311H77.0897V30.2929H82.6105V31.0311H82.6115Z" fill="#156483"/>
<path d="M88.7596 33.9476H85.6657V36.3551H89.2604V37.088H84.7252V30.2929H89.2122V31.0301H85.6668V33.2137H88.7607V33.9476H88.7596Z" fill="#156483"/>
<path d="M96.7394 34.9324C96.6997 35.2527 96.6171 35.5495 96.4916 35.8259C96.3662 36.1013 96.1924 36.3392 95.9694 36.5395C95.7474 36.741 95.4761 36.8974 95.1554 37.0099C94.8348 37.1235 94.4616 37.1802 94.0326 37.1802C93.6101 37.1802 93.2283 37.1063 92.8851 36.9563C92.543 36.8063 92.2481 36.5942 92.0058 36.3188C91.7613 36.0434 91.5747 35.7134 91.4428 35.3277C91.3098 34.942 91.2433 34.5102 91.2433 34.0345V33.353C91.2433 32.8784 91.3109 32.4455 91.4449 32.0587C91.579 31.672 91.7698 31.3398 92.0186 31.0644C92.2664 30.7891 92.5688 30.5769 92.9237 30.4248C93.2776 30.2737 93.6755 30.1987 94.1173 30.1987C94.5195 30.1987 94.8755 30.2555 95.1854 30.3669C95.4964 30.4784 95.7603 30.6348 95.9769 30.8362C96.1946 31.0366 96.3672 31.2755 96.4938 31.5541C96.6214 31.8337 96.7029 32.1402 96.7394 32.4755H95.7924C95.757 32.2387 95.7002 32.0266 95.6262 31.8359C95.5511 31.6462 95.4471 31.4844 95.3141 31.3505C95.1822 31.2177 95.0181 31.1148 94.8219 31.043C94.6256 30.9723 94.3908 30.9359 94.1163 30.9359C93.7988 30.9359 93.52 30.9937 93.2798 31.1105C93.0396 31.2262 92.839 31.3902 92.676 31.6002C92.5152 31.8102 92.3929 32.0641 92.3114 32.3609C92.2299 32.6577 92.1892 32.9855 92.1892 33.3434V34.0334C92.1892 34.3677 92.2256 34.6795 92.2996 34.972C92.3725 35.2634 92.4851 35.5206 92.6353 35.7392C92.7854 35.9588 92.9763 36.1313 93.2079 36.2567C93.4406 36.3831 93.7152 36.4463 94.0326 36.4463C94.3329 36.4463 94.587 36.412 94.7929 36.3434C94.9978 36.2749 95.1694 36.1763 95.3056 36.0477C95.4417 35.9181 95.5468 35.7595 95.6219 35.572C95.697 35.3845 95.7538 35.1702 95.7935 34.9302H96.7394V34.9324Z" fill="#156483"/>
<path d="M104.564 37.0869H103.618V33.9465H100.019V37.0869H99.0772V30.2929H100.019V33.2147H103.618V30.2929H104.564V37.0869Z" fill="#156483"/>
<path d="M112.778 37.0869H111.831L108.237 31.8519V37.0869H107.291V30.2929H108.237L111.84 35.5516V30.2929H112.777V37.0869H112.778Z" fill="#156483"/>
<path d="M120.996 33.9091C120.996 34.4202 120.929 34.8755 120.793 35.2784C120.657 35.6812 120.465 36.0241 120.218 36.307C119.969 36.5909 119.667 36.8063 119.315 36.9552C118.962 37.1041 118.568 37.1791 118.133 37.1791C117.71 37.1791 117.323 37.1052 116.97 36.9552C116.617 36.8052 116.314 36.5898 116.058 36.307C115.803 36.0241 115.605 35.6812 115.465 35.2784C115.323 34.8755 115.253 34.4191 115.253 33.9091V33.4805C115.253 32.9726 115.323 32.5173 115.465 32.1112C115.605 31.7051 115.8 31.3612 116.052 31.0772C116.304 30.7944 116.607 30.578 116.961 30.4269C117.313 30.2758 117.701 30.2008 118.122 30.2008C118.556 30.2008 118.951 30.2758 119.306 30.4269C119.661 30.579 119.962 30.7955 120.213 31.0772C120.463 31.3612 120.656 31.7051 120.792 32.1112C120.927 32.5173 120.995 32.9737 120.995 33.4805V33.9091H120.996ZM120.06 33.4709C120.06 33.0669 120.016 32.7091 119.93 32.3973C119.843 32.0865 119.717 31.8251 119.55 31.614C119.384 31.403 119.179 31.2422 118.94 31.134C118.699 31.0247 118.428 30.9712 118.123 30.9712C117.832 30.9712 117.568 31.0258 117.33 31.134C117.091 31.2422 116.888 31.403 116.719 31.614C116.551 31.8251 116.421 32.0865 116.33 32.3973C116.238 32.7091 116.193 33.0669 116.193 33.4709V33.9091C116.193 34.3173 116.239 34.6762 116.332 34.9869C116.425 35.2977 116.557 35.5602 116.727 35.7734C116.896 35.9855 117.101 36.1473 117.339 36.2555C117.577 36.3638 117.843 36.4184 118.134 36.4184C118.441 36.4184 118.714 36.3638 118.953 36.2555C119.191 36.1462 119.393 35.9855 119.558 35.7734C119.722 35.5602 119.849 35.2977 119.933 34.9869C120.018 34.6762 120.061 34.3173 120.061 33.9091V33.4709H120.06Z" fill="#156483"/>
<path d="M124.408 36.3551H127.792V37.088H123.463V30.2929H124.408V36.3551Z" fill="#156483"/>
<path d="M135.093 33.9091C135.093 34.4202 135.025 34.8755 134.89 35.2784C134.755 35.6812 134.562 36.0241 134.314 36.307C134.066 36.5909 133.765 36.8063 133.411 36.9552C133.058 37.1052 132.665 37.1791 132.229 37.1791C131.807 37.1791 131.421 37.1052 131.067 36.9552C130.714 36.8052 130.411 36.5898 130.155 36.307C129.9 36.0241 129.702 35.6812 129.561 35.2784C129.421 34.8755 129.351 34.4191 129.351 33.9091V33.4805C129.351 32.9726 129.421 32.5173 129.561 32.1112C129.702 31.7051 129.898 31.3612 130.15 31.0772C130.401 30.7944 130.705 30.578 131.057 30.4269C131.41 30.2758 131.797 30.2008 132.22 30.2008C132.654 30.2008 133.049 30.2758 133.404 30.4269C133.759 30.579 134.061 30.7955 134.312 31.0772C134.561 31.3612 134.755 31.7051 134.89 32.1112C135.026 32.5173 135.093 32.9737 135.093 33.4805V33.9091ZM134.157 33.4709C134.157 33.0669 134.114 32.7091 134.027 32.3973C133.94 32.0865 133.813 31.8251 133.647 31.614C133.481 31.403 133.277 31.2422 133.037 31.134C132.797 31.0247 132.524 30.9712 132.221 30.9712C131.93 30.9712 131.664 31.0258 131.426 31.134C131.188 31.2422 130.984 31.403 130.816 31.614C130.649 31.8251 130.518 32.0865 130.427 32.3973C130.336 32.7091 130.289 33.0669 130.289 33.4709V33.9091C130.289 34.3173 130.336 34.6762 130.429 34.9869C130.522 35.2977 130.654 35.5602 130.824 35.7734C130.994 35.9855 131.199 36.1473 131.437 36.2555C131.675 36.3648 131.94 36.4184 132.231 36.4184C132.537 36.4184 132.811 36.3638 133.05 36.2555C133.289 36.1473 133.491 35.9855 133.655 35.7734C133.82 35.5602 133.945 35.2977 134.03 34.9869C134.116 34.6762 134.158 34.3173 134.158 33.9091V33.4709H134.157Z" fill="#156483"/>
<path d="M142.831 36.1954C142.763 36.2886 142.668 36.3925 142.546 36.5061C142.426 36.6186 142.266 36.7257 142.069 36.8254C141.871 36.925 141.628 37.0086 141.34 37.0772C141.052 37.1447 140.707 37.18 140.305 37.18C139.87 37.18 139.471 37.1072 139.107 36.9604C138.742 36.8146 138.428 36.6036 138.165 36.3282C137.901 36.0529 137.697 35.7164 137.55 35.3168C137.403 34.9171 137.329 34.4628 137.329 33.956V33.4235C137.329 32.9167 137.393 32.4635 137.519 32.066C137.644 31.6674 137.829 31.3299 138.073 31.0535C138.316 30.7771 138.617 30.5649 138.973 30.4192C139.329 30.2724 139.737 30.1996 140.199 30.1996C140.608 30.1996 140.965 30.2521 141.273 30.356C141.58 30.461 141.841 30.6046 142.057 30.7899C142.273 30.9753 142.444 31.1949 142.572 31.4499C142.698 31.7049 142.785 31.9835 142.831 32.2846H141.89C141.853 32.1014 141.797 31.9278 141.72 31.7649C141.644 31.6021 141.538 31.4585 141.404 31.3364C141.27 31.2131 141.106 31.1167 140.908 31.0449C140.712 30.9742 140.477 30.9378 140.203 30.9378C139.869 30.9378 139.582 30.9956 139.34 31.1103C139.097 31.2249 138.899 31.3899 138.741 31.6042C138.583 31.8185 138.467 32.0789 138.39 32.3842C138.314 32.6896 138.276 33.0325 138.276 33.415V33.9571C138.276 34.3482 138.325 34.6985 138.424 35.0061C138.521 35.3136 138.66 35.575 138.838 35.7893C139.016 36.0036 139.23 36.1675 139.481 36.2789C139.73 36.3904 140.008 36.4471 140.311 36.4471C140.566 36.4471 140.782 36.43 140.961 36.3979C141.139 36.3657 141.289 36.325 141.411 36.2768C141.534 36.2286 141.633 36.1761 141.708 36.1182C141.782 36.0614 141.846 36.0068 141.894 35.9586V34.4328H140.242V33.7042H142.831V36.1954Z" fill="#156483"/>
<path d="M147.632 33.7044L149.495 30.2929H150.564L148.102 34.553V37.0869H147.161V34.553L144.699 30.2929H145.778L147.632 33.7044Z" fill="#156483"/>
<path d="M25.0224 41.2787C21.4952 41.2787 18.233 40.1548 15.5659 38.2519C13.6077 40.5458 11.1508 42.4016 8.36258 43.652C12.7873 47.5992 18.6233 50.0003 25.0224 50.0003C32.052 50.0003 38.4038 47.102 42.9497 42.4391L36.7738 36.2686C33.8096 39.3555 29.6423 41.2787 25.0224 41.2787Z" fill="#1685C0"/>
<path d="M25.0224 0C18.6233 0 12.7873 2.40111 8.36258 6.34831C11.1508 7.59868 13.6077 9.45442 15.5659 11.7484C18.233 9.8455 21.4952 8.72155 25.0224 8.72155C29.387 8.72155 33.3464 10.4391 36.2719 13.2302L42.4478 7.05974C37.9427 2.6904 31.7978 0 25.0224 0Z" fill="#1685C0"/>
<path d="M13.5863 36.5923C10.5889 33.6394 8.72936 29.5379 8.72936 25.0003C8.72936 20.4628 10.5889 16.3613 13.5863 13.4084C11.6635 11.1616 9.19479 9.39798 6.38295 8.32225C2.41505 12.7473 0 18.592 0 25.0003C0 31.4087 2.41505 37.2534 6.38295 41.6774C9.19479 40.6027 11.6645 38.8391 13.5863 36.5923Z" fill="#156483"/>
<path d="M25.4289 29.423C27.7748 29.423 29.6766 27.5229 29.6766 25.179C29.6766 22.8351 27.7748 20.935 25.4289 20.935C23.0829 20.935 21.1811 22.8351 21.1811 25.179C21.1811 27.5229 23.0829 29.423 25.4289 29.423Z" fill="#156483"/>
</svg>
