<svg width="30" height="35" viewBox="0 0 30 35" fill="none" xmlns="http://www.w3.org/2000/svg">
<g clip-path="url(#clip0_296_14368)">
<path d="M15.118 35.0001C14.8919 35.0001 14.6659 35.0001 14.4405 35.0001C14.2477 34.9412 14.0522 34.8891 13.8621 34.8213C11.9822 34.1537 10.1886 33.3047 8.5219 32.1968C6.03444 30.5438 4.048 28.4246 2.62844 25.7706C1.04798 22.8153 0.404389 19.6121 0.141658 16.309C-0.0708348 13.6365 -0.00362448 10.9592 0.0778425 8.28393C0.100246 7.5499 0.347363 6.88092 0.778459 6.28794C1.53339 5.24784 2.58227 4.79797 3.83279 4.71785C6.84504 4.52476 9.60677 3.62229 11.9971 1.7112C12.5009 1.30858 12.9625 0.851866 13.471 0.455407C14.2483 -0.151264 15.3 -0.14921 16.0834 0.449929C16.4337 0.717659 16.7487 1.03058 17.0834 1.31954C18.5967 2.62532 20.3075 3.55724 22.2226 4.1194C23.5431 4.50696 24.8988 4.64185 26.2573 4.7829C27.9918 4.96299 29.4297 6.51596 29.482 8.2764C29.5669 11.168 29.6348 14.0603 29.3544 16.9471C29.1609 18.9342 28.8282 20.8926 28.1955 22.7899C26.9348 26.5697 24.7114 29.627 21.4528 31.9023C19.5009 33.265 17.3835 34.2873 15.118 35.0001ZM14.7752 8.78036C10.0175 8.792 6.14306 12.6984 6.13016 17.4977C6.11726 22.2791 9.98355 26.1862 14.7657 26.2239C19.4941 26.2608 23.4609 22.262 23.4276 17.4901C23.3951 12.6731 19.5166 8.76872 14.7752 8.78036Z" fill="white"/>
<path d="M14.7669 10.8386C18.3929 10.8154 21.3807 13.8213 21.3868 17.499C21.3929 21.1657 18.4037 24.1806 14.7737 24.169C11.1376 24.1573 8.20882 21.2109 8.1674 17.523C8.12667 13.8823 11.1084 10.8619 14.7669 10.8386ZM13.2944 18.9287C12.8823 18.5001 12.5592 18.1522 12.2231 17.8174C11.7465 17.3429 11.143 17.3203 10.718 17.7483C10.3052 18.1639 10.331 18.7979 10.79 19.2684C11.3283 19.8196 11.8728 20.3653 12.4173 20.9103C12.978 21.4718 13.5245 21.4684 14.0914 20.8973C15.5924 19.3854 17.0914 17.8715 18.5911 16.3582C18.6631 16.2857 18.7357 16.2131 18.7955 16.1309C19.0976 15.7214 19.0514 15.1442 18.6929 14.7909C18.3277 14.43 17.7737 14.3958 17.3657 14.7149C17.2591 14.7977 17.1641 14.897 17.0684 14.9936C15.8871 16.1836 14.7051 17.3737 13.5273 18.5686C13.4424 18.6548 13.3915 18.7774 13.2944 18.9287Z" fill="white"/>
</g>
<defs>
<clipPath id="clip0_296_14368">
<rect width="29.5556" height="35" fill="white"/>
</clipPath>
</defs>
</svg>
