<svg width="37" height="28" viewBox="0 0 37 28" fill="none" xmlns="http://www.w3.org/2000/svg">
<path d="M36.5769 13.4472L27.1837 4.05403C26.8916 3.76194 26.3748 3.76194 26.0827 4.05403L24.0462 6.09048C23.7421 6.39464 23.7421 6.88769 24.0462 7.19185L30.8527 13.9975L24.0466 20.8044C23.7425 21.1085 23.7425 21.6016 24.0466 21.9058L26.0831 23.9422C26.2291 24.0883 26.4274 24.1708 26.6338 24.1708C26.8398 24.1708 27.0384 24.0883 27.1844 23.9422L36.5769 14.5494C36.881 14.2448 36.881 13.7514 36.5769 13.4472Z" fill="white"/>
<path d="M12.7584 20.8043L5.95308 13.9983L12.7595 7.19258C12.9056 7.04653 12.9878 6.84869 12.9878 6.64189C12.9878 6.43548 12.906 6.23725 12.7595 6.09121L10.7231 4.05476C10.577 3.90871 10.3788 3.82654 10.1724 3.82654C9.966 3.82654 9.76777 3.90871 9.62172 4.05476L0.228122 13.4472C-0.0760406 13.7514 -0.0760406 14.2444 0.228122 14.5489L9.62133 23.9418C9.76738 24.0878 9.96561 24.1704 10.172 24.1704C10.3784 24.1704 10.5767 24.0878 10.7227 23.9418L12.7592 21.9053C13.0633 21.6016 13.0633 21.1085 12.7584 20.8043Z" fill="white"/>
<path d="M23.744 0.894097C23.6451 0.712612 23.4784 0.577861 23.2806 0.519444L21.6297 0.0322385C21.2177 -0.0900496 20.7838 0.146348 20.6623 0.558779L12.9983 26.5131C12.9399 26.7113 12.9624 26.9243 13.061 27.1054C13.1595 27.2873 13.3266 27.4217 13.5244 27.4805L15.1753 27.9677C15.2489 27.9895 15.3233 28 15.3961 28C15.7322 28 16.0426 27.7803 16.1427 27.4411L23.8067 1.48645C23.8652 1.28822 23.843 1.07519 23.744 0.894097Z" fill="white"/>
</svg>
